<svg xmlns="http://www.w3.org/2000/svg" width="20" height="21" viewBox="0 0 20 21" fill="none">
  <path d="M19.6002 15.3354L12.5933 3.19898C11.4489 1.19409 8.55474 1.19409 7.41438 3.19898L0.403419 15.3354C-0.741059 17.3403 0.683363 19.831 2.9929 19.831H16.986C19.2955 19.831 20.7447 17.3156 19.6002 15.3354ZM9.99974 17.1386C9.39045 17.1386 8.88408 16.6322 8.88408 16.0229C8.88408 15.4136 9.39045 14.9072 9.99974 14.9072C10.609 14.9072 11.1154 15.4136 11.0907 16.0517C11.1195 16.6322 10.5843 17.1386 9.99974 17.1386ZM11.0166 9.92588C10.9672 10.7904 10.9137 11.6508 10.8643 12.5154C10.8396 12.7953 10.8396 13.0506 10.8396 13.3264C10.8149 13.7833 10.4567 14.1374 9.99974 14.1374C9.54278 14.1374 9.18873 13.808 9.15991 13.3511C9.08581 12.0049 9.00759 10.6834 8.93348 9.33717C8.90878 8.98313 8.88408 8.62496 8.85526 8.27091C8.85526 7.68633 9.18461 7.20466 9.7198 7.05233C10.255 6.92471 10.7861 7.17996 11.0166 7.68633C11.0948 7.86335 11.1195 8.04037 11.1195 8.24621C11.0948 8.81022 11.0413 9.37011 11.0166 9.92588Z" fill="#FFFAFA"/>
</svg>