<svg xmlns="http://www.w3.org/2000/svg" width="20" height="20" viewBox="0 0 20 20" fill="none">
  <path d="M2.35137 2.15625C2.13352 2.15625 1.96094 2.33422 1.96094 2.54648C1.96094 2.76656 2.14047 2.9375 2.35137 2.9375C2.56562 2.9375 2.74219 2.76352 2.74219 2.54648C2.74219 2.33559 2.57129 2.15625 2.35137 2.15625Z" fill="#8D8D8D"/>
  <path d="M4.3125 2.15625C4.10023 2.15625 3.92188 2.33406 3.92188 2.54648C3.92188 2.7591 4.09973 2.9375 4.3125 2.9375C4.5252 2.9375 4.70312 2.7591 4.70312 2.54648C4.70312 2.33406 4.52477 2.15625 4.3125 2.15625Z" fill="#8D8D8D"/>
  <path d="M14.1179 2.15625H6.27344C6.0577 2.15625 5.88281 2.33113 5.88281 2.54688C5.88281 2.76262 6.0577 2.9375 6.27344 2.9375H14.1178C14.3336 2.9375 14.5084 2.76258 14.5084 2.54688C14.5084 2.33117 14.3336 2.15625 14.1179 2.15625Z" fill="#8D8D8D"/>
  <path d="M19.6094 14.5113H19.0014C18.9761 14.4441 18.9486 14.3779 18.919 14.3125L19.3489 13.8825C19.5015 13.73 19.5015 13.4826 19.3489 13.33L18.2395 12.2207C18.087 12.0682 17.8396 12.0682 17.6871 12.2207L17.2572 12.6507C17.1918 12.621 17.1255 12.5935 17.0583 12.5682V11.9603C17.0583 11.7446 16.8834 11.5697 16.6677 11.5697H16.47V2.35094C16.47 1.1623 15.503 0.195312 14.3144 0.195312H2.15562C0.966992 0.195312 0 1.16227 0 2.3509V13.7253C0 14.9139 0.966992 15.8809 2.15562 15.8809H11.7666V16.4709C11.7666 16.6866 11.9415 16.8615 12.1572 16.8615H12.7651C12.7904 16.9286 12.8179 16.995 12.8475 17.0604L12.4176 17.4903C12.2651 17.6428 12.2651 17.8902 12.4176 18.0427L13.527 19.1521C13.6795 19.3046 13.9269 19.3046 14.0794 19.1521L14.5093 18.7221C14.5747 18.7518 14.641 18.7793 14.7082 18.8046V19.4125C14.7082 19.6282 14.883 19.8031 15.0988 19.8031H16.6677C16.8834 19.8031 17.0583 19.6282 17.0583 19.4125V18.8046C17.1254 18.7793 17.1918 18.7518 17.2571 18.7221L17.6871 19.1521C17.8396 19.3046 18.087 19.3046 18.2395 19.1521L19.3489 18.0427C19.5014 17.8902 19.5014 17.6429 19.3489 17.4903L18.9189 17.0603C18.9486 16.9949 18.9761 16.9286 19.0014 16.8615H19.6094C19.8251 16.8615 20 16.6866 20 16.4709V14.9019C20 14.6862 19.8251 14.5113 19.6094 14.5113ZM0.78125 2.3509C0.78125 1.59309 1.39777 0.976523 2.15562 0.976523H14.3144C15.0722 0.976523 15.6888 1.59305 15.6888 2.3509V4.1175H0.78125V2.3509ZM11.7666 14.9019V15.0996H2.15562C1.39781 15.0996 0.78125 14.4831 0.78125 13.7252V4.89875H15.6888V11.5696H15.0989C14.8831 11.5696 14.7082 11.7446 14.7082 11.9603V12.5682C14.6411 12.5935 14.5748 12.621 14.5094 12.6506L14.0794 12.2207C13.9269 12.0682 13.6795 12.0682 13.527 12.2207L12.4177 13.33C12.2651 13.4825 12.2651 13.7299 12.4177 13.8825L12.8476 14.3124C12.818 14.3778 12.7905 14.4441 12.7652 14.5113H12.1572C11.9415 14.5113 11.7666 14.6862 11.7666 14.9019ZM19.2188 16.0802H18.7183C18.5426 16.0802 18.3886 16.1975 18.3418 16.3668C18.2863 16.5678 18.2059 16.7617 18.1028 16.9433C18.016 17.0962 18.042 17.2881 18.1663 17.4124L18.5203 17.7665L17.9633 18.3234L17.6093 17.9694C17.485 17.8452 17.293 17.8191 17.1402 17.906C16.9587 18.009 16.7648 18.0894 16.5637 18.145C16.3944 18.1917 16.2771 18.3458 16.2771 18.5215V19.0219H15.4895V18.5215C15.4895 18.3458 15.3721 18.1918 15.2028 18.145C15.0017 18.0894 14.8078 18.009 14.6263 17.906C14.4734 17.8191 14.2815 17.8451 14.1572 17.9694L13.8032 18.3235L13.2463 17.7665L13.6003 17.4125C13.7246 17.2882 13.7505 17.0962 13.6637 16.9433C13.5607 16.7618 13.4802 16.5679 13.4248 16.3669C13.378 16.1975 13.2239 16.0802 13.0482 16.0802H12.5478V15.2925H13.0482C13.2239 15.2925 13.378 15.1752 13.4248 15.0059C13.4803 14.8049 13.5607 14.611 13.6637 14.4295C13.7505 14.2766 13.7246 14.0846 13.6003 13.9603L13.2463 13.6063L13.8032 13.0493L14.1572 13.4033C14.2814 13.5276 14.4735 13.5536 14.6263 13.4668C14.8079 13.3637 15.0018 13.2833 15.2028 13.2278C15.3721 13.181 15.4895 13.0269 15.4895 12.8512V12.3509H16.2771V12.8512C16.2771 13.0269 16.3944 13.181 16.5637 13.2278C16.7647 13.2833 16.9586 13.3637 17.1402 13.4668C17.2931 13.5536 17.485 13.5276 17.6093 13.4033L17.9633 13.0493L18.5203 13.6063L18.1663 13.9603C18.042 14.0846 18.016 14.2766 18.1028 14.4294C18.2059 14.611 18.2863 14.8049 18.3418 15.0059C18.3886 15.1753 18.5427 15.2925 18.7183 15.2925H19.2188V16.0802Z" fill="#8D8D8D"/>
  <path d="M15.8825 13.9219C14.9102 13.9219 14.1191 14.7129 14.1191 15.6853C14.1191 16.6576 14.9102 17.4487 15.8825 17.4487C16.8549 17.4487 17.6459 16.6576 17.6459 15.6853C17.6459 14.7129 16.8549 13.9219 15.8825 13.9219ZM15.8825 16.6674C15.341 16.6674 14.9004 16.2268 14.9004 15.6852C14.9004 15.1437 15.341 14.7031 15.8825 14.7031C16.4241 14.7031 16.8647 15.1437 16.8647 15.6852C16.8647 16.2268 16.4241 16.6674 15.8825 16.6674Z" fill="#8D8D8D"/>
  <path d="M10.9804 11.1719H2.35156C2.13582 11.1719 1.96094 11.3468 1.96094 11.5625C1.96094 11.7782 2.13582 11.9531 2.35156 11.9531H10.9804C11.1961 11.9531 11.371 11.7782 11.371 11.5625C11.371 11.3468 11.1961 11.1719 10.9804 11.1719Z" fill="#8D8D8D"/>
  <path d="M10.9804 13.1406H2.35156C2.13582 13.1406 1.96094 13.3155 1.96094 13.5312C1.96094 13.747 2.13582 13.9219 2.35156 13.9219H10.9804C11.1961 13.9219 11.371 13.747 11.371 13.5312C11.371 13.3155 11.1961 13.1406 10.9804 13.1406Z" fill="#8D8D8D"/>
  <path d="M3.73473 9.89648C3.78032 9.91375 3.82711 9.92195 3.87309 9.92195C4.03075 9.92195 4.17926 9.82586 4.23844 9.66965L4.39735 9.25043H5.49887L5.6559 9.66855C5.73176 9.87055 5.95704 9.97289 6.15891 9.89691C6.36086 9.82109 6.46309 9.59586 6.38723 9.39391L5.37469 6.69793C5.37336 6.69437 5.372 6.69082 5.37055 6.68734C5.30067 6.51652 5.13641 6.40625 4.952 6.40625C4.95188 6.40625 4.95172 6.40625 4.95157 6.40625C4.767 6.40645 4.60274 6.51707 4.53309 6.68812C4.53192 6.69105 4.53075 6.69398 4.52961 6.69699L3.50782 9.39285C3.43149 9.59449 3.53301 9.82004 3.73473 9.89648ZM4.95067 7.79062L5.20551 8.46914H4.69352L4.95067 7.79062Z" fill="#8D8D8D"/>
  <path d="M12.7422 9.52867V6.78125C12.7422 6.56555 12.5673 6.39062 12.3516 6.39062C12.1358 6.39062 11.9609 6.56555 11.9609 6.78125V9.52867C11.9609 9.74441 12.1358 9.9193 12.3516 9.9193C12.5673 9.9193 12.7422 9.74441 12.7422 9.52867Z" fill="#8D8D8D"/>
  <path d="M8.44531 9.92188C8.66105 9.92188 8.83594 9.74699 8.83594 9.53125V8.73207C8.97746 8.73137 9.12488 8.73078 9.21375 8.73078C9.86699 8.73078 10.3984 8.20937 10.3984 7.56852C10.3984 6.92766 9.86699 6.40625 9.21375 6.40625H8.44531C8.2257 6.40625 8.05469 6.58602 8.05469 6.79688V9.53125C8.05469 9.74699 8.22957 9.92188 8.44531 9.92188ZM9.21371 7.1875C9.43242 7.1875 9.61715 7.36199 9.61715 7.56852C9.61715 7.77504 9.43238 7.94953 9.21371 7.94953C9.12547 7.94953 8.9798 7.95012 8.8391 7.95078C8.8373 7.58559 8.83828 7.64902 8.83703 7.1875H9.21371Z" fill="#8D8D8D"/>
</svg>