<svg xmlns="http://www.w3.org/2000/svg" width="20" height="21" viewBox="0 0 20 21" fill="none">
  <path fill-rule="evenodd" clip-rule="evenodd" d="M10.0013 1.80469C5.05714 1.80469 1.04297 5.81885 1.04297 10.763C1.04297 15.7072 5.05714 19.7214 10.0013 19.7214C14.9455 19.7214 18.9596 15.7072 18.9596 10.763C18.9596 5.81885 14.9455 1.80469 10.0013 1.80469ZM7.70964 7.42969V14.0964C7.70964 14.2621 7.77548 14.4211 7.89269 14.5383C8.0099 14.6555 8.16888 14.7214 8.33464 14.7214C8.5004 14.7214 8.65937 14.6555 8.77658 14.5383C8.89379 14.4211 8.95964 14.2621 8.95964 14.0964V7.42969C8.95964 7.26393 8.89379 7.10496 8.77658 6.98775C8.65937 6.87054 8.5004 6.80469 8.33464 6.80469C8.16888 6.80469 8.0099 6.87054 7.89269 6.98775C7.77548 7.10496 7.70964 7.26393 7.70964 7.42969ZM11.043 7.42969V14.0964C11.043 14.2621 11.1088 14.4211 11.226 14.5383C11.3432 14.6555 11.5022 14.7214 11.668 14.7214C11.8337 14.7214 11.9927 14.6555 12.1099 14.5383C12.2271 14.4211 12.293 14.2621 12.293 14.0964V7.42969C12.293 7.26393 12.2271 7.10496 12.1099 6.98775C11.9927 6.87054 11.8337 6.80469 11.668 6.80469C11.5022 6.80469 11.3432 6.87054 11.226 6.98775C11.1088 7.10496 11.043 7.26393 11.043 7.42969Z" fill="white"/>
</svg>