<svg xmlns="http://www.w3.org/2000/svg" width="20" height="20" viewBox="0 0 20 20" fill="none">
  <g clip-path="url(#clip0_2492_30606)">
    <path d="M14.7266 9.45312C11.8187 9.45312 9.45312 11.8187 9.45312 14.7266C9.45312 17.6344 11.8187 20 14.7266 20C17.6344 20 20 17.6344 20 14.7266C20 11.8187 17.6344 9.45312 14.7266 9.45312ZM17.0703 15.3125H14.7266C14.4027 15.3125 14.1406 15.0504 14.1406 14.7266V12.3828C14.1406 12.059 14.4027 11.7969 14.7266 11.7969C15.0504 11.7969 15.3125 12.059 15.3125 12.3828V14.1406H17.0703C17.3941 14.1406 17.6562 14.4027 17.6562 14.7266C17.6562 15.0504 17.3941 15.3125 17.0703 15.3125ZM18.7891 1.79688C18.7891 1.46867 18.5313 1.21094 18.2031 1.21094H15.2734V2.96875C15.2734 3.2968 15.0157 3.55469 14.6875 3.55469C14.3593 3.55469 14.1016 3.2968 14.1016 2.96875V1.21094H11.7578V2.96875C11.7578 3.2968 11.5001 3.55469 11.1719 3.55469C10.8437 3.55469 10.5859 3.2968 10.5859 2.96875V1.21094H8.24219V2.96875C8.24219 3.2968 7.98445 3.55469 7.65625 3.55469C7.32805 3.55469 7.07031 3.2968 7.07031 2.96875V1.21094H4.72656V2.96875C4.72656 3.2968 4.46883 3.55469 4.14062 3.55469C3.81242 3.55469 3.55469 3.2968 3.55469 2.96875V1.21094H0.585938C0.257734 1.21094 0 1.46867 0 1.79688V4.72656H18.7891V1.79688Z" fill="white"/>
    <path d="M8.82812 11.7578H8.96883C9.18273 11.3422 9.42414 10.9432 9.71953 10.5859H8.82812C8.5043 10.5859 8.24219 10.3238 8.24219 10C8.24219 9.67617 8.5043 9.41406 8.82812 9.41406H10C10.24 9.41406 10.4449 9.55887 10.5355 9.76531C11.6582 8.81699 13.1062 8.24219 14.6875 8.24219H13.5156C13.1918 8.24219 12.9297 7.98008 12.9297 7.65625C12.9297 7.33242 13.1918 7.07031 13.5156 7.07031H14.6875C15.0113 7.07031 15.2734 7.33242 15.2734 7.65625C15.2734 7.98008 15.0113 8.24219 14.6875 8.24219C16.2443 8.24219 17.6739 8.79727 18.7891 9.71953V5.89844H0V17.0312C0 17.3551 0.262109 17.6172 0.585938 17.6172H8.95371C8.50219 16.7371 8.24219 15.7428 8.24219 14.6875C8.24219 14.0425 8.35781 13.4279 8.535 12.84C8.36305 12.7379 8.24219 12.5584 8.24219 12.3438C8.24219 12.0199 8.5043 11.7578 8.82812 11.7578ZM8.82812 7.07031H10C10.3238 7.07031 10.5859 7.33242 10.5859 7.65625C10.5859 7.98008 10.3238 8.24219 10 8.24219H8.82812C8.5043 8.24219 8.24219 7.98008 8.24219 7.65625C8.24219 7.33242 8.5043 7.07031 8.82812 7.07031ZM5.3125 15.2734H4.14062C3.8168 15.2734 3.55469 15.0113 3.55469 14.6875C3.55469 14.3637 3.8168 14.1016 4.14062 14.1016H5.3125C5.63633 14.1016 5.89844 14.3637 5.89844 14.6875C5.89844 15.0113 5.63633 15.2734 5.3125 15.2734ZM5.3125 12.9297H4.14062C3.8168 12.9297 3.55469 12.6676 3.55469 12.3438C3.55469 12.0199 3.8168 11.7578 4.14062 11.7578H5.3125C5.63633 11.7578 5.89844 12.0199 5.89844 12.3438C5.89844 12.6676 5.63633 12.9297 5.3125 12.9297ZM5.3125 10.5859H4.14062C3.8168 10.5859 3.55469 10.3238 3.55469 10C3.55469 9.67617 3.8168 9.41406 4.14062 9.41406H5.3125C5.63633 9.41406 5.89844 9.67617 5.89844 10C5.89844 10.3238 5.63633 10.5859 5.3125 10.5859ZM5.3125 8.24219H4.14062C3.8168 8.24219 3.55469 7.98008 3.55469 7.65625C3.55469 7.33242 3.8168 7.07031 4.14062 7.07031H5.3125C5.63633 7.07031 5.89844 7.33242 5.89844 7.65625C5.89844 7.98008 5.63633 8.24219 5.3125 8.24219ZM4.72656 0.585938C4.72656 0.257734 4.46883 0 4.14062 0C3.81242 0 3.55469 0.257734 3.55469 0.585938V1.21094H4.72656V0.585938ZM8.24219 0.585938C8.24219 0.257734 7.98445 0 7.65625 0C7.32805 0 7.07031 0.257734 7.07031 0.585938V1.21094H8.24219V0.585938ZM11.7578 0.585938C11.7578 0.257734 11.5001 0 11.1719 0C10.8437 0 10.5859 0.257734 10.5859 0.585938V1.21094H11.7578V0.585938ZM15.2734 0.585938C15.2734 0.257734 15.0157 0 14.6875 0C14.3593 0 14.1016 0.257734 14.1016 0.585938V1.21094H15.2734V0.585938Z" fill="white"/>
  </g>
  <defs>
    <clipPath id="clip0_2492_30606">
      <rect width="20" height="20" fill="white"/>
    </clipPath>
  </defs>
</svg>