<svg xmlns="http://www.w3.org/2000/svg" width="20" height="20" viewBox="0 0 20 20" fill="none">
  <g clip-path="url(#clip0_2492_30865)">
    <path d="M17.9266 2.76258L15.4688 0.304688V2.758L17.9266 2.76258Z" fill="white"/>
    <path d="M18.2764 3.94288H14.8763C14.5501 3.94227 14.2858 3.67768 14.2858 3.35129V-0.0390625H4.40814C4.0813 -0.0390625 3.81641 0.225831 3.81641 0.552522V11.1363C4.4324 10.8789 5.10776 10.7366 5.81592 10.7366C6.08616 10.7366 6.35151 10.7573 6.61075 10.7973C6.59138 10.7389 6.58054 10.6766 6.58054 10.6117C6.58054 10.2851 6.84543 10.0202 7.17228 10.0202H14.2977C14.6244 10.0202 14.8893 10.2851 14.8893 10.6117C14.8893 10.9384 14.6244 11.2033 14.2977 11.2033H7.96909C9.76704 12.0239 11.0198 13.8385 11.0198 15.9404C11.0198 16.7533 10.8323 17.5232 10.4984 18.2093H17.6848C18.0115 18.2093 18.2764 17.9444 18.2764 17.6177V3.94288ZM12.1679 5.95765C12.1679 6.2845 11.903 6.54924 11.5763 6.54924H7.17228C6.84543 6.54924 6.58054 6.2845 6.58054 5.95765C6.58054 5.63096 6.84543 5.36607 7.17228 5.36607H11.5763C11.903 5.36607 12.1679 5.63096 12.1679 5.95765ZM14.2977 8.87636H7.17228C6.84543 8.87636 6.58054 8.61147 6.58054 8.28478C6.58054 7.95793 6.84543 7.69304 7.17228 7.69304H14.2977C14.6244 7.69304 14.8893 7.95793 14.8893 8.28478C14.8893 8.61147 14.6244 8.87636 14.2977 8.87636Z" fill="white"/>
    <path d="M9.83797 15.9424C9.83797 13.7255 8.03437 11.9219 5.81742 11.9219C3.60047 11.9219 1.79688 13.7255 1.79688 15.9424C1.79688 18.1594 3.60047 19.963 5.81742 19.963C8.03437 19.963 9.83797 18.1594 9.83797 15.9424ZM7.50901 17.6714C7.3935 17.7869 7.24214 17.8447 7.09077 17.8447C6.9394 17.8447 6.78788 17.7869 6.67237 17.6714L5.81742 16.8164L4.96247 17.6714C4.84696 17.7869 4.69559 17.8447 4.54423 17.8447C4.39271 17.8447 4.24134 17.7871 4.12583 17.6714C3.89481 17.4404 3.89481 17.0658 4.12583 16.8348L4.98078 15.9798L4.12583 15.1249C3.89481 14.8938 3.89481 14.5192 4.12583 14.2882C4.35685 14.0572 4.73145 14.0572 4.96247 14.2882L5.81757 15.1432L6.67253 14.2882C6.90354 14.0572 7.27815 14.057 7.50917 14.2882C7.74018 14.5192 7.74018 14.8938 7.50917 15.1249L6.65421 15.9798L7.50917 16.8348C7.74003 17.0658 7.74003 17.4404 7.50901 17.6714Z" fill="white"/>
  </g>
  <defs>
    <clipPath id="clip0_2492_30865">
      <rect width="20" height="20" fill="white"/>
    </clipPath>
  </defs>
</svg>