<svg xmlns="http://www.w3.org/2000/svg" width="20" height="20" viewBox="0 0 20 20" fill="none">
  <g clip-path="url(#clip0_4_30170)">
    <path d="M6.81456 2.89413C6.87213 2.99382 6.97694 3.05042 7.08538 3.05042C7.13061 3.05042 7.17647 3.04057 7.21975 3.01991C7.94682 2.67296 8.72787 2.46569 9.54119 2.40386C9.70412 2.39147 9.83002 2.25565 9.83002 2.09225V0.625223C9.83002 0.538895 9.79428 0.456395 9.73135 0.397332C9.66842 0.33827 9.58393 0.307801 9.49764 0.313387C8.34881 0.386746 7.24463 0.682449 6.21577 1.19229C6.13842 1.23061 6.08037 1.29925 6.05537 1.38186C6.03037 1.46448 6.04073 1.55378 6.08385 1.62854L6.81456 2.89413ZM9.20502 0.965145V1.80831C8.51475 1.88827 7.84733 2.06534 7.21428 2.33647L6.79506 1.61034C7.56116 1.26929 8.36916 1.05296 9.20502 0.965145ZM2.28409 12.8051C2.32233 12.8826 2.39096 12.9408 2.47366 12.9658C2.5033 12.9748 2.53385 12.9793 2.56424 12.9793C2.61858 12.9793 2.67252 12.9651 2.72049 12.9374L3.99205 12.2033C4.13327 12.1218 4.18807 11.9454 4.11788 11.7982C3.77002 11.0687 3.56174 10.2883 3.4987 9.47882C3.486 9.31612 3.3503 9.19057 3.18713 9.19057H1.71967C1.63334 9.19057 1.5508 9.22632 1.49174 9.28929C1.43268 9.35225 1.40229 9.4369 1.40784 9.52308C1.48159 10.673 1.77643 11.7772 2.28409 12.8051ZM2.90377 9.81554C2.98475 10.503 3.16268 11.1695 3.43444 11.8035L2.70276 12.226C2.36319 11.4604 2.14756 10.6522 2.05967 9.81554H2.90377ZM1.71971 8.73682H3.19291C3.35502 8.73682 3.49026 8.61284 3.50424 8.45132C3.57459 7.63983 3.78452 6.86022 4.12819 6.13417C4.1978 5.9871 4.14287 5.8112 4.00198 5.72983L2.7228 4.99132C2.64803 4.94815 2.5587 4.9378 2.47608 4.96284C2.39342 4.98784 2.32479 5.04589 2.28647 5.12327C1.77721 6.15175 1.48162 7.25565 1.40784 8.40429C1.40229 8.49046 1.43268 8.57511 1.49174 8.63807C1.55084 8.70108 1.63334 8.73682 1.71971 8.73682ZM2.70475 5.70257L3.44498 6.12995C3.17631 6.76046 2.99756 7.42483 2.91178 8.11182H2.05971C2.1478 7.2762 2.36405 6.46839 2.70475 5.70257ZM19.4514 9.77917C19.3703 9.61206 19.2044 9.50827 19.0185 9.50823H18.7106C18.7219 9.32694 18.7276 9.14483 18.7276 8.9637C18.7276 6.74538 17.8902 4.63491 16.3698 3.02108C14.856 1.41432 12.8127 0.452645 10.616 0.313113C10.53 0.307723 10.4453 0.338035 10.3824 0.397098C10.3195 0.45616 10.2838 0.53866 10.2838 0.624949V2.09237C10.2838 2.25565 10.4094 2.39139 10.5723 2.40393C13.9737 2.66636 16.6383 5.54772 16.6383 8.96366C16.6383 9.14491 16.6308 9.32714 16.6159 9.50815H16.4161C16.2302 9.50815 16.0643 9.61194 15.9832 9.77905C15.9021 9.94612 15.9231 10.1407 16.0381 10.2867L17.3394 11.9395C17.4313 12.0561 17.569 12.1229 17.7174 12.1229C17.8658 12.1229 18.0035 12.056 18.0952 11.9394L19.3964 10.2867C19.5114 10.1407 19.5325 9.94624 19.4514 9.77917ZM17.7173 11.4092L16.7127 10.1333H16.8978C17.0555 10.1333 17.1884 10.0158 17.2079 9.85932C17.2446 9.56382 17.2632 9.26249 17.2632 8.96374C17.2632 7.13729 16.5786 5.39526 15.3355 4.05858C14.1651 2.80014 12.6023 2.00815 10.9087 1.80897V0.964871C14.9688 1.39171 18.1026 4.84257 18.1026 8.96374C18.1026 9.23893 18.0885 9.51663 18.0608 9.78905C18.0518 9.87698 18.0805 9.96464 18.1397 10.0302C18.199 10.0958 18.2833 10.1333 18.3717 10.1333H18.7219L17.7173 11.4092ZM2.9503 4.59878L4.22506 5.33475C4.27416 5.36311 4.32791 5.37667 4.38108 5.37667C4.48139 5.37667 4.57952 5.32835 4.63967 5.23991C5.09694 4.56776 5.66545 3.99436 6.32936 3.53561C6.46327 3.44307 6.50373 3.26323 6.42233 3.12225L5.69135 1.8562C5.64815 1.78132 5.5758 1.72772 5.49162 1.70807C5.40737 1.6885 5.31885 1.7046 5.24702 1.75264C4.29256 2.39089 3.48498 3.19897 2.84663 4.15452C2.79862 4.22639 2.78252 4.31491 2.80213 4.39909C2.82186 4.48331 2.87545 4.55557 2.9503 4.59878ZM5.32045 2.46366L5.73995 3.19026C5.18909 3.60452 4.70342 4.09436 4.29123 4.65128L3.5576 4.22772C4.05186 3.54936 4.64287 2.95796 5.32045 2.46366ZM14.4128 13.0515L11.3999 14.8064C11.2853 14.8731 11.1692 14.9246 11.0495 14.9611C11.0862 14.8873 11.1163 14.8074 11.1392 14.7219C11.2994 14.1239 10.9447 13.4997 10.3317 13.301C10.3183 13.2967 10.3046 13.2932 10.2908 13.2907C9.42858 13.1352 8.57592 12.8269 7.89077 12.5792C7.65186 12.4929 7.4262 12.4113 7.23389 12.3489C6.44565 12.0932 5.73729 12.4073 5.1483 12.7484L2.94623 14.0233L2.75737 13.6896C2.65815 13.5143 2.49612 13.388 2.30116 13.3339C2.10623 13.2799 1.90229 13.3048 1.72694 13.404L0.881586 13.8824C0.518773 14.0878 0.390648 14.55 0.595961 14.9128L3.08123 19.3041C3.18045 19.4795 3.34248 19.6058 3.53745 19.6598C3.60487 19.6785 3.67334 19.6878 3.74135 19.6878C3.86998 19.6878 3.99698 19.6546 4.11166 19.5898L4.95702 19.1113C5.13233 19.0121 5.25866 18.8501 5.31272 18.6551C5.36674 18.4601 5.34186 18.2562 5.24264 18.0808L5.00846 17.6671L5.46444 17.4038L9.30522 18.4329C9.52209 18.491 9.73791 18.5199 9.95014 18.5199C10.3795 18.5199 10.7943 18.4017 11.1735 18.1683L16.6412 14.8015C17.1595 14.4824 17.3248 13.6796 16.988 13.1173C16.8249 12.845 16.1573 12.0357 14.4128 13.0515ZM4.71045 18.4882C4.70498 18.5079 4.68975 18.5444 4.6492 18.5674L3.80385 19.0458C3.76334 19.0689 3.72413 19.0631 3.7044 19.0576C3.68467 19.0521 3.64815 19.0369 3.62518 18.9963L1.13995 14.605C1.10495 14.5432 1.1276 14.4614 1.18948 14.4264L2.03487 13.9479C2.05741 13.9352 2.07948 13.9313 2.09807 13.9313C2.11291 13.9313 2.12553 13.9337 2.13432 13.9362C2.15405 13.9417 2.19057 13.9569 2.2135 13.9974L4.69877 18.3887C4.72166 18.4293 4.71592 18.4684 4.71045 18.4882ZM16.3135 14.2694L10.8459 17.6361C10.4233 17.8962 9.9594 17.9613 9.46702 17.8292L5.50116 16.7666C5.42104 16.7452 5.3358 16.7564 5.26405 16.7978L4.70061 17.1231L3.25409 14.5672L5.46143 13.2892C5.95483 13.0035 6.48768 12.7638 7.04104 12.9433C7.22346 13.0025 7.4342 13.0787 7.67823 13.1669C8.37955 13.4205 9.25092 13.7355 10.1569 13.9016C10.4471 14.0046 10.6093 14.2846 10.5355 14.5601C10.4382 14.9231 10.133 14.9682 9.88932 14.9405C9.44823 14.8497 9.02819 14.7298 8.58381 14.6029C8.37202 14.5424 8.15303 14.4799 7.92776 14.4195C7.76104 14.3749 7.58971 14.4738 7.54502 14.6405C7.50038 14.8072 7.59932 14.9785 7.766 15.0232C7.98631 15.0823 8.20284 15.1441 8.41217 15.2039C8.87287 15.3355 9.78784 15.5576 9.78991 15.558L10.1647 15.6189C10.7357 15.7102 11.2427 15.6212 11.7144 15.3464L14.7273 13.5916C15.5705 13.1005 16.2151 13.0432 16.4518 13.4384C16.6135 13.7083 16.5437 14.1276 16.3135 14.2694ZM2.25784 14.7567C2.28194 14.9216 2.1678 15.0749 2.00288 15.099C1.83795 15.1231 1.68467 15.009 1.66057 14.844C1.63647 14.6791 1.75061 14.5258 1.91553 14.5017C2.08045 14.4776 2.2337 14.5918 2.25784 14.7567ZM12.7144 6.03542C12.7144 4.78886 11.7002 3.77468 10.4536 3.77468C9.20706 3.77468 8.19287 4.78886 8.19287 6.03542C8.19287 6.79573 8.57053 7.46905 9.14772 7.87909C7.63034 8.37698 6.49022 9.72163 6.31178 11.3891C6.30233 11.4772 6.3308 11.5652 6.39006 11.6312C6.44932 11.6971 6.53381 11.7348 6.62248 11.7348H14.2846C14.3733 11.7348 14.4578 11.6971 14.5171 11.6312C14.5763 11.5652 14.6048 11.4772 14.5953 11.389C14.4169 9.72163 13.2768 8.37702 11.7594 7.87909C12.3367 7.46909 12.7144 6.79573 12.7144 6.03542ZM13.9198 11.1098H6.98737C7.32416 9.48358 8.75702 8.29651 10.4528 8.29612C10.4531 8.29612 10.4533 8.29616 10.4536 8.29616H10.4544C12.1501 8.29655 13.583 9.48358 13.9198 11.1098ZM10.4536 7.67112C10.4532 7.67112 10.4529 7.67112 10.4526 7.67112C9.55112 7.67054 8.81787 6.93702 8.81787 6.03542C8.81787 5.13347 9.55166 4.39968 10.4536 4.39968C11.3556 4.39968 12.0894 5.13347 12.0894 6.03542C12.0894 6.93702 11.3561 7.67057 10.4546 7.67112C10.4543 7.67116 10.4539 7.67112 10.4536 7.67112Z" fill="#8D8D8D"/>
  </g>
  <defs>
    <clipPath id="clip0_4_30170">
      <rect width="20" height="20" fill="white"/>
    </clipPath>
  </defs>
</svg>