<svg xmlns="http://www.w3.org/2000/svg" width="20" height="20" viewBox="0 0 20 20" fill="none">
  <g clip-path="url(#clip0_4_30149)">
    <path d="M7.70828 6.66672H1.45828C0.654144 6.66672 0 6.01257 0 5.20828V1.45828C0 0.654144 0.654144 0 1.45828 0H7.70828C8.51257 0 9.16672 0.654144 9.16672 1.45828V5.20828C9.16672 6.01257 8.51257 6.66672 7.70828 6.66672ZM1.45828 1.25C1.34338 1.25 1.25 1.34338 1.25 1.45828V5.20828C1.25 5.32333 1.34338 5.41672 1.45828 5.41672H7.70828C7.82333 5.41672 7.91672 5.32333 7.91672 5.20828V1.45828C7.91672 1.34338 7.82333 1.25 7.70828 1.25H1.45828Z" fill="#8D8D8D"/>
    <path d="M7.70828 19.9948H1.45828C0.654144 19.9948 0 19.3407 0 18.5366V9.78656C0 8.98227 0.654144 8.32812 1.45828 8.32812H7.70828C8.51257 8.32812 9.16672 8.98227 9.16672 9.78656V18.5366C9.16672 19.3407 8.51257 19.9948 7.70828 19.9948ZM1.45828 9.57812C1.34338 9.57812 1.25 9.67151 1.25 9.78656V18.5366C1.25 18.6515 1.34338 18.7448 1.45828 18.7448H7.70828C7.82333 18.7448 7.91672 18.6515 7.91672 18.5366V9.78656C7.91672 9.67151 7.82333 9.57812 7.70828 9.57812H1.45828Z" fill="#8D8D8D"/>
    <path d="M18.5424 19.9948H12.2924C11.4881 19.9948 10.834 19.3407 10.834 18.5366V14.7866C10.834 13.9823 11.4881 13.3281 12.2924 13.3281H18.5424C19.3466 13.3281 20.0007 13.9823 20.0007 14.7866V18.5366C20.0007 19.3407 19.3466 19.9948 18.5424 19.9948ZM12.2924 14.5781C12.1774 14.5781 12.084 14.6715 12.084 14.7866V18.5366C12.084 18.6515 12.1774 18.7448 12.2924 18.7448H18.5424C18.6573 18.7448 18.7507 18.6515 18.7507 18.5366V14.7866C18.7507 14.6715 18.6573 14.5781 18.5424 14.5781H12.2924Z" fill="#8D8D8D"/>
    <path d="M18.5424 11.6667H12.2924C11.4881 11.6667 10.834 11.0126 10.834 10.2083V1.45828C10.834 0.654144 11.4881 0 12.2924 0H18.5424C19.3466 0 20.0007 0.654144 20.0007 1.45828V10.2083C20.0007 11.0126 19.3466 11.6667 18.5424 11.6667ZM12.2924 1.25C12.1774 1.25 12.084 1.34338 12.084 1.45828V10.2083C12.084 10.3233 12.1774 10.4167 12.2924 10.4167H18.5424C18.6573 10.4167 18.7507 10.3233 18.7507 10.2083V1.45828C18.7507 1.34338 18.6573 1.25 18.5424 1.25H12.2924Z" fill="#8D8D8D"/>
  </g>
  <defs>
    <clipPath id="clip0_4_30149">
      <rect width="20" height="20" fill="white"/>
    </clipPath>
  </defs>
</svg>