<svg xmlns="http://www.w3.org/2000/svg" width="14" height="14" viewBox="0 0 14 14" fill="none">
  <path d="M0.437077 2.47241H7.09171C7.29227 3.38532 8.10753 4.07069 9.0798 4.07069C10.0521 4.07069 10.8673 3.38535 11.0679 2.47241H13.5494C13.7908 2.47241 13.9865 2.2767 13.9865 2.03533C13.9865 1.79395 13.7908 1.59825 13.5494 1.59825H11.0677C10.8667 0.6858 10.0504 0 9.0798 0C8.10873 0 7.29273 0.685691 7.09187 1.59825H0.437077C0.195701 1.59825 0 1.79395 0 2.03533C0 2.2767 0.195701 2.47241 0.437077 2.47241ZM7.91865 2.03648C7.91865 2.03492 7.91868 2.03333 7.91868 2.03178C7.92059 1.39345 8.44145 0.87418 9.0798 0.87418C9.71725 0.87418 10.2381 1.39274 10.2409 2.03077L10.241 2.03719C10.24 2.6766 9.71946 3.19656 9.0798 3.19656C8.44041 3.19656 7.92007 2.67712 7.91863 2.03809L7.91865 2.03648ZM13.5494 11.5276H11.0677C10.8667 10.6151 10.0504 9.92931 9.0798 9.92931C8.10873 9.92931 7.29273 10.615 7.09187 11.5276H0.437077C0.195701 11.5276 0 11.7232 0 11.9646C0 12.206 0.195701 12.4017 0.437077 12.4017H7.09171C7.29227 13.3146 8.10753 14 9.0798 14C10.0521 14 10.8673 13.3146 11.0679 12.4017H13.5494C13.7908 12.4017 13.9865 12.206 13.9865 11.9646C13.9865 11.7232 13.7908 11.5276 13.5494 11.5276ZM9.0798 13.1258C8.44041 13.1258 7.92007 12.6064 7.91863 11.9674L7.91865 11.9658C7.91865 11.9642 7.91868 11.9626 7.91868 11.9611C7.92059 11.3228 8.44145 10.8035 9.0798 10.8035C9.71725 10.8035 10.2381 11.322 10.2409 11.96L10.241 11.9664C10.2401 12.6059 9.71952 13.1258 9.0798 13.1258ZM13.5494 6.56292H6.89475C6.69418 5.65001 5.87893 4.96467 4.90665 4.96467C3.93437 4.96467 3.11912 5.65001 2.91855 6.56292H0.437077C0.195701 6.56292 0 6.75862 0 7C0 7.2414 0.195701 7.43708 0.437077 7.43708H2.91877C3.11974 8.3495 3.93609 9.03533 4.90665 9.03533C5.87772 9.03533 6.69372 8.34961 6.89458 7.43708H13.5494C13.7908 7.43708 13.9865 7.2414 13.9865 7C13.9865 6.75862 13.7908 6.56292 13.5494 6.56292ZM6.0678 6.99885C6.0678 7.00044 6.06777 7.00199 6.06777 7.00355C6.06586 7.64187 5.545 8.16115 4.90665 8.16115C4.2692 8.16115 3.74831 7.64258 3.74556 7.00459L3.74547 6.9982C3.74643 6.3587 4.26696 5.83882 4.90665 5.83882C5.54604 5.83882 6.06638 6.35823 6.06783 6.9973L6.0678 6.99885Z" fill="#606060"/>
</svg>