<svg xmlns="http://www.w3.org/2000/svg" width="20" height="20" viewBox="0 0 20 20" fill="none">
  <path d="M19.375 17.1875H17.1875V1.875C17.1875 1.01344 16.4866 0.3125 15.625 0.3125H1.875C1.01344 0.3125 0.3125 1.01344 0.3125 1.875V2.5C0.3125 2.58288 0.345424 2.66237 0.404029 2.72097C0.462634 2.77958 0.54212 2.8125 0.625 2.8125H2.8125V18.125C2.8125 18.9866 3.51344 19.6875 4.375 19.6875H18.125C18.9866 19.6875 19.6875 18.9866 19.6875 18.125V17.5C19.6875 17.4171 19.6546 17.3376 19.596 17.279C19.5374 17.2204 19.4579 17.1875 19.375 17.1875ZM0.9375 1.875C0.9375 1.35812 1.35812 0.9375 1.875 0.9375H14.3756C14.172 1.2076 14.0621 1.53675 14.0625 1.875V2.1875H0.9375V1.875ZM5.3125 17.5V18.125C5.3125 18.6419 4.89187 19.0625 4.375 19.0625C3.85812 19.0625 3.4375 18.6419 3.4375 18.125V2.8125H14.375C14.4579 2.8125 14.5374 2.77958 14.596 2.72097C14.6546 2.66237 14.6875 2.58288 14.6875 2.5V1.875C14.6875 1.35812 15.1081 0.9375 15.625 0.9375C16.1419 0.9375 16.5625 1.35812 16.5625 1.875V17.1875H5.625C5.54212 17.1875 5.46263 17.2204 5.40403 17.279C5.34542 17.3376 5.3125 17.4171 5.3125 17.5ZM19.0625 18.125C19.0625 18.6419 18.6419 19.0625 18.125 19.0625H5.62437C5.82799 18.7924 5.93793 18.4632 5.9375 18.125V17.8125H19.0625V18.125Z" fill="#8D8D8D"/>
  <path d="M6.875 9.0625C8.42594 9.0625 9.6875 7.80094 9.6875 6.25C9.68807 5.88841 9.61856 5.53014 9.48281 5.195L8.90344 5.43C9.00906 5.69 9.0625 5.96594 9.0625 6.25C9.0625 7.45594 8.08094 8.4375 6.875 8.4375C5.66906 8.4375 4.6875 7.45594 4.6875 6.25C4.6875 5.04406 5.66906 4.0625 6.875 4.0625C7.24625 4.0625 7.6125 4.15719 7.93437 4.33562L8.23781 3.78938C7.82067 3.55856 7.35174 3.43749 6.875 3.4375C5.32406 3.4375 4.0625 4.69906 4.0625 6.25C4.0625 7.80094 5.32406 9.0625 6.875 9.0625Z" fill="#8D8D8D"/>
  <path d="M5.84594 6.02906L5.40406 6.47094L6.65406 7.72094C6.68735 7.75443 6.72781 7.77992 6.77239 7.79548C6.81697 7.81104 6.86451 7.81627 6.91141 7.81076C6.95831 7.80525 7.00334 7.78915 7.0431 7.76369C7.08287 7.73822 7.11632 7.70405 7.14094 7.66375L9.64094 3.60125L9.10875 3.27344L6.81594 6.99906L5.84594 6.02906ZM4.0625 9.6875H4.6875V10.3125H4.0625V9.6875ZM5.3125 9.6875H15.9375V10.3125H5.3125V9.6875ZM15.3125 10.9375H15.9375V11.5625H15.3125V10.9375ZM4.0625 10.9375H14.6875V11.5625H4.0625V10.9375ZM4.0625 12.1875H4.6875V12.8125H4.0625V12.1875ZM5.3125 12.1875H15.9375V12.8125H5.3125V12.1875ZM15.3125 13.4375H15.9375V14.0625H15.3125V13.4375ZM4.0625 13.4375H14.6875V14.0625H4.0625V13.4375ZM4.0625 14.6875H4.6875V15.3125H4.0625V14.6875ZM5.3125 14.6875H15.9375V15.3125H5.3125V14.6875ZM15.3125 15.9375H15.9375V16.5625H15.3125V15.9375ZM4.0625 15.9375H14.6875V16.5625H4.0625V15.9375Z" fill="#8D8D8D"/>
</svg>