<svg xmlns="http://www.w3.org/2000/svg" width="20" height="20" viewBox="0 0 20 20" fill="none">
  <g clip-path="url(#clip0_2492_30586)">
    <path d="M10 19.9988C7.17789 19.9988 4.14062 19.2652 4.14062 17.655C4.14062 16.7366 5.15457 16.0099 6.99535 15.6094L7.24484 16.7549C5.66898 17.0977 5.3125 17.5806 5.3125 17.655C5.3125 17.956 6.92441 18.8269 10 18.8269C13.0756 18.8269 14.6875 17.956 14.6875 17.655C14.6875 17.5806 14.331 17.0977 12.7552 16.7549L13.0046 15.6094C14.8454 16.0099 15.8594 16.7366 15.8594 17.655C15.8594 19.2652 12.8221 19.9988 10 19.9988Z" fill="white"/>
    <path d="M12.0508 5.85938H11.1719V6.44531H12.0508C12.2121 6.44531 12.3438 6.31371 12.3438 6.15234C12.3438 5.99098 12.2121 5.85938 12.0508 5.85938Z" fill="white"/>
    <path d="M10 0C6.44605 0 3.55469 2.89137 3.55469 6.44531C3.55469 7.90445 4.05594 9.33438 4.96633 10.4708L10 16.8357L15.0337 10.4708C15.9441 9.33438 16.4453 7.90445 16.4453 6.44531C16.4453 2.89137 13.5539 0 10 0ZM8.82812 9.375H7.65625V4.6875H8.82812V9.375ZM12.0508 7.61719H11.1719V9.375H10V7.61719V7.03125V4.6875H12.0508C12.8588 4.6875 13.5156 5.34438 13.5156 6.15234C13.5156 6.96031 12.8588 7.61719 12.0508 7.61719Z" fill="white"/>
  </g>
  <defs>
    <clipPath id="clip0_2492_30586">
      <rect width="20" height="20" fill="white"/>
    </clipPath>
  </defs>
</svg>