<svg xmlns="http://www.w3.org/2000/svg" width="18" height="18" viewBox="0 0 18 18" fill="none">
  <path d="M11.4545 0.046875C10.3153 0.046875 9.39613 0.046875 8.67363 0.144375C7.92363 0.244375 7.29196 0.461042 6.7903 0.961875C6.35363 1.39937 6.13196 1.93687 6.01613 2.56854C5.90363 3.18271 5.88196 3.93354 5.87696 4.83521C5.87608 5.00097 5.94108 5.16029 6.05766 5.27813C6.17425 5.39596 6.33287 5.46266 6.49863 5.46354C6.66439 5.46443 6.82371 5.39943 6.94155 5.28284C7.05938 5.16625 7.12608 5.00764 7.12696 4.84188C7.13196 3.93104 7.1553 3.28521 7.2453 2.79437C7.3328 2.32271 7.47196 2.04854 7.67446 1.84604C7.9053 1.61521 8.22946 1.46521 8.84113 1.38271C9.4703 1.29854 10.3045 1.29688 11.5003 1.29688H12.3336C13.5303 1.29688 14.3645 1.29854 14.9936 1.38271C15.6053 1.46521 15.9286 1.61604 16.1603 1.84604C16.392 2.07604 16.5403 2.40021 16.6228 3.01271C16.7078 3.64104 16.7086 4.47604 16.7086 5.67188V12.3385C16.7086 13.5344 16.7078 14.3694 16.6228 14.9985C16.5403 15.6102 16.3903 15.9335 16.1595 16.1644C15.9286 16.3952 15.6053 16.5452 14.9936 16.6277C14.3645 16.7119 13.5303 16.7135 12.3336 16.7135H11.5003C10.3045 16.7135 9.4703 16.7119 8.8403 16.6277C8.22946 16.5452 7.9053 16.3944 7.67446 16.1644C7.47196 15.9619 7.3328 15.6877 7.2453 15.216C7.1553 14.7252 7.13196 14.0794 7.12696 13.1685C7.12652 13.0865 7.10992 13.0053 7.07811 12.9296C7.0463 12.854 6.99989 12.7853 6.94155 12.7276C6.8832 12.6698 6.81406 12.6242 6.73806 12.5932C6.66206 12.5622 6.58071 12.5464 6.49863 12.5469C6.41655 12.5473 6.33537 12.5639 6.25971 12.5957C6.18404 12.6275 6.11539 12.6739 6.05766 12.7323C5.99994 12.7906 5.95427 12.8598 5.92326 12.9358C5.89226 13.0118 5.87652 13.0931 5.87696 13.1752C5.88196 14.0769 5.90363 14.8277 6.01613 15.4419C6.1328 16.0735 6.35363 16.611 6.79113 17.0485C7.29196 17.5502 7.92446 17.7652 8.67446 17.8669C9.39613 17.9635 10.3153 17.9635 11.4545 17.9635H12.3795C13.5195 17.9635 14.4378 17.9635 15.1603 17.866C15.9103 17.766 16.542 17.5494 17.0436 17.0485C17.5453 16.5469 17.7603 15.9152 17.862 15.1652C17.9586 14.4427 17.9586 13.5235 17.9586 12.3844V5.62604C17.9586 4.48688 17.9586 3.56771 17.862 2.84521C17.7611 2.09521 17.5453 1.46354 17.0436 0.961875C16.542 0.460208 15.9103 0.245208 15.1603 0.144375C14.4378 0.046875 13.5186 0.046875 12.3795 0.046875H11.4545Z" fill="#8D8D8D"/>
  <path d="M11.4998 8.3753C11.6656 8.3753 11.8245 8.44115 11.9418 8.55836C12.059 8.67557 12.1248 8.83454 12.1248 9.0003C12.1248 9.16606 12.059 9.32503 11.9418 9.44224C11.8245 9.55945 11.6656 9.6253 11.4998 9.6253H2.35565L3.98981 11.0253C4.11579 11.1332 4.19376 11.2866 4.20658 11.452C4.21939 11.6173 4.166 11.781 4.05815 11.907C3.95029 12.0329 3.79681 12.1109 3.63147 12.1237C3.46612 12.1366 3.30246 12.0832 3.17648 11.9753L0.259814 9.4753C0.191201 9.41663 0.136115 9.34379 0.0983444 9.26179C0.0605737 9.17979 0.0410156 9.09058 0.0410156 9.0003C0.0410156 8.91002 0.0605737 8.82082 0.0983444 8.73882C0.136115 8.65682 0.191201 8.58398 0.259814 8.5253L3.17648 6.0253C3.23886 5.9719 3.31114 5.9313 3.38921 5.90584C3.46728 5.88037 3.5496 5.87052 3.63147 5.87687C3.71334 5.88322 3.79316 5.90562 3.86637 5.94282C3.93958 5.98001 4.00474 6.03126 4.05815 6.09364C4.11155 6.15601 4.15215 6.2283 4.17762 6.30637C4.20308 6.38443 4.21292 6.46675 4.20658 6.54862C4.20023 6.63049 4.17783 6.71031 4.14063 6.78352C4.10344 6.85673 4.05219 6.9219 3.98981 6.9753L2.35648 8.3753H11.4998Z" fill="#8D8D8D"/>
</svg>