<svg width="118" height="48" viewBox="0 0 118 48" fill="none" xmlns="http://www.w3.org/2000/svg">
<path d="M48.3574 25.1412C48.8701 24.5987 49.2164 23.9279 49.3571 23.2044C49.601 22.0395 49.3483 21.1916 48.599 20.6607C47.8498 20.1299 46.502 19.8602 44.5558 19.8516H40.3286L38.6971 27.2997H43.3721C44.9969 27.2997 45.6797 27.855 45.4314 28.9589C45.3883 29.2296 45.2892 29.489 45.1403 29.7216C44.9914 29.9542 44.7956 30.1552 44.5647 30.3126C44.1213 30.6031 43.5029 30.743 42.716 30.743H40.364L37.4336 33.0607H42.532C44.0659 33.0607 45.3545 32.7243 46.3979 32.0514C46.9041 31.7339 47.3391 31.3202 47.6766 30.8354C48.0141 30.3506 48.2472 29.8046 48.3618 29.2301C48.5503 28.38 48.5059 27.6979 48.2311 27.19C47.9562 26.6821 47.4065 26.3292 46.5841 26.1462L46.6084 26.0386C47.2803 25.9435 47.8979 25.6266 48.3574 25.1412ZM46.3114 23.5789C46.2734 23.8146 46.1842 24.0397 46.0497 24.2393C45.9151 24.439 45.7384 24.6085 45.5311 24.7367C45.1299 24.9712 44.5336 25.0874 43.7467 25.0874H42.0155L42.716 22.1521H44.2277C45.0612 22.1521 45.6398 22.2618 45.97 22.4813C46.3003 22.7008 46.4134 23.0667 46.3114 23.5789Z" fill="#494949"/>
<path d="M41.5367 27.3047L40.6411 30.8814L37.4336 33.0721L39.6769 27.3047H41.5367Z" fill="#494949"/>
<path d="M59.264 23.9919C58.6212 23.1756 57.569 22.7674 56.1075 22.7674C54.662 22.7319 53.2566 23.2303 52.1751 24.1619C51.0992 25.0916 50.3795 26.4 50.016 28.0872C49.651 29.7328 49.8409 31.0025 50.5857 31.8963C51.3305 32.7901 52.543 33.2399 54.2233 33.2456C54.9329 33.2552 55.6418 33.1983 56.3402 33.0756C56.925 32.9627 57.4942 32.7836 58.036 32.5419L58.5192 30.4157C57.9088 30.6657 57.2778 30.8651 56.6328 31.0118C56.036 31.1398 55.4264 31.2033 54.8151 31.2012C54.0105 31.2012 53.4297 30.986 53.0728 30.5427C52.7159 30.0994 52.6095 29.4925 52.7558 28.7134H59.4835L59.7672 27.3727C60.0731 25.9287 59.9046 24.8097 59.264 23.9919ZM57.2047 26.8756H53.2147C53.3724 26.2752 53.694 25.7273 54.1457 25.2896C54.5672 24.912 55.1241 24.7096 55.6974 24.7257C56.2959 24.7257 56.7304 24.9151 57.0008 25.2896C57.2712 25.664 57.3355 26.1977 57.2047 26.8778V26.8756Z" fill="#494949"/>
<path d="M67.6495 27.828C67.1605 27.4516 66.6176 27.1464 66.038 26.922C65.486 26.7081 64.9573 26.4414 64.4597 26.1257C64.3532 26.057 64.2709 25.9584 64.2237 25.843C64.1766 25.7276 64.1669 25.601 64.1959 25.4801C64.2846 25.0497 64.7435 24.8216 65.5769 24.8216C66.0294 24.8224 66.4787 24.8951 66.9069 25.0368C67.3281 25.181 67.7825 25.3574 68.2636 25.5683L69.5581 23.5906C68.4816 23.05 67.2855 22.7722 66.0735 22.7815C64.7568 22.7815 63.6883 23.029 62.8615 23.5153C62.468 23.7386 62.1284 24.0412 61.8657 24.4028C61.6029 24.7644 61.4232 25.1766 61.3386 25.6114C61.224 26.0426 61.2089 26.493 61.2943 26.9306C61.3914 27.301 61.6062 27.6323 61.9083 27.8775C62.3889 28.2486 62.92 28.5535 63.4866 28.7835C63.9006 28.9615 64.3033 29.1634 64.6925 29.3882C64.9159 29.5107 65.116 29.6693 65.2843 29.8573C65.336 29.9336 65.3704 30.0197 65.3853 30.1098C65.4002 30.2 65.3953 30.2921 65.3708 30.3803C65.2407 30.9613 64.6637 31.2519 63.6395 31.2519C63.068 31.2411 62.5002 31.1587 61.9504 31.0065C61.3815 30.866 60.8311 30.6623 60.3101 30.3997L59.8047 32.6765C60.2541 32.8711 60.7248 33.0155 61.2078 33.1069C61.8359 33.2175 62.4737 33.2679 63.112 33.2575C64.5898 33.2575 65.7557 32.9878 66.6099 32.4484C67.033 32.1819 67.3959 31.8346 67.6764 31.4276C67.9568 31.0207 68.1491 30.5625 68.2414 30.0812C68.3455 29.6571 68.3493 29.2156 68.2525 28.7899C68.1541 28.4184 67.9442 28.0836 67.6495 27.828Z" fill="#494949"/>
<path d="M74.7185 25.0262H77.6335L78.0923 22.9645H75.1774L75.6385 20.8125H73.8186L72.524 22.9409L70.7706 23.8748L70.5068 25.024H71.8679L70.815 29.8984C70.5667 31.0189 70.6406 31.8553 71.0366 32.4076C71.429 32.9629 72.1982 33.2383 73.3375 33.2383C74.2635 33.2539 75.1843 33.1022 76.053 32.7907L76.4963 30.7269C75.8934 30.9178 75.2659 31.0257 74.6321 31.0475C74.4843 31.0577 74.336 31.0385 74.1961 30.9911C74.0563 30.9438 73.9278 30.8692 73.8186 30.7721C73.6368 30.587 73.5969 30.2965 73.6767 29.9005L74.7185 25.0262Z" fill="#494949"/>
<path d="M89.6406 22.2008L90.1416 19.8594H79.8628L79.3574 22.2008H83.0637L80.6874 33.075H83.5691L85.8368 22.7452L83.4516 22.3299V22.2029L89.6406 22.2008Z" fill="#494949"/>
<path d="M101.098 22.9685L100.577 25.3465H94.7653C93.9549 25.3167 93.1585 25.5575 92.5087 26.0287C91.8961 26.504 91.4773 27.1752 91.3272 27.9224L90.2078 33.0679H87.3594L89.5761 22.9642H91.724L91.3649 26.2632H91.5179C91.9612 25.6972 92.061 24.0725 93.5129 23.2934C94.0147 23.0106 94.5734 22.8359 95.151 22.7812L96.0931 22.8092L101.098 22.9685Z" fill="#494949"/>
<path d="M97.5649 26.0837L96.0332 33.0713H98.8839L100.546 25.4768C100.052 25.5005 98.5735 25.5005 97.5649 26.0837ZM98.2477 22.9654L97.7267 25.3455H100.575L101.096 22.9675L98.2477 22.9654ZM100.526 19.0078C99.492 19.0078 98.8787 19.4547 98.6866 20.3485C98.4945 21.2423 98.9171 21.6957 99.9545 21.7086C100.395 21.7304 100.83 21.6025 101.185 21.3471C101.499 21.0939 101.709 20.7395 101.777 20.3485C101.966 19.4533 101.549 19.0064 100.526 19.0078Z" fill="#494949"/>
<path d="M111.501 24.1575C111.01 23.2364 110.153 22.7751 108.928 22.7737C108.301 22.7665 107.68 22.8985 107.114 23.1596C106.548 23.4207 106.051 23.804 105.66 24.2801H105.529L105.396 22.9609H103.095L99.9189 37.513H102.767L103.654 33.4241C103.696 33.2821 103.102 31.8574 103.175 31.0203H103.33C103.825 31.8703 105.341 33.2326 106.567 33.2326C107.364 33.2341 108.146 33.021 108.826 32.6171C109.565 32.1693 110.18 31.5514 110.614 30.818C111.135 29.9485 111.509 29.0041 111.723 28.0204C112.066 26.3676 111.992 25.08 111.501 24.1575ZM108.817 27.9666C108.365 30.0095 107.502 31.031 106.23 31.031C105.516 31.031 105.046 30.7943 104.827 30.3187C104.607 29.8431 104.618 29.0662 104.851 27.9881L104.918 27.6911C105.119 26.7248 105.436 26.0362 105.857 25.6165C106.079 25.4048 106.344 25.2397 106.635 25.1316C106.925 25.0235 107.236 24.9746 107.547 24.9882C108.212 24.9882 108.635 25.2356 108.839 25.7328C109.043 26.2299 109.036 26.9723 108.817 27.9666Z" fill="#494949"/>
<path d="M48.1823 38.4844V37.8232H52.1222V38.4844H50.5338V42.9141H49.7682V38.4844H48.1823ZM52.5368 42.9141V39.0959H53.2551V39.7024H53.2949C53.3645 39.4969 53.4872 39.3353 53.6628 39.2177C53.8401 39.0984 54.0407 39.0387 54.2644 39.0387C54.3108 39.0387 54.3655 39.0404 54.4284 39.0437C54.4931 39.047 54.5436 39.0511 54.5801 39.0561V39.767C54.5502 39.7588 54.4972 39.7496 54.421 39.7397C54.3448 39.7281 54.2685 39.7223 54.1923 39.7223C54.0166 39.7223 53.86 39.7596 53.7225 39.8342C53.5866 39.9071 53.4789 40.009 53.3993 40.1399C53.3198 40.2692 53.28 40.4167 53.28 40.5824V42.9141H52.5368ZM56.3002 42.9986C56.0583 42.9986 55.8395 42.9538 55.644 42.8643C55.4484 42.7732 55.2935 42.6415 55.1792 42.4691C55.0665 42.2968 55.0101 42.0855 55.0101 41.8352C55.0101 41.6198 55.0516 41.4425 55.1344 41.3033C55.2173 41.1641 55.3291 41.0539 55.47 40.9727C55.6109 40.8915 55.7683 40.8301 55.9423 40.7887C56.1163 40.7473 56.2936 40.7158 56.4743 40.6942C56.7029 40.6677 56.8886 40.6462 57.0311 40.6296C57.1736 40.6114 57.2772 40.5824 57.3418 40.5426C57.4064 40.5028 57.4387 40.4382 57.4387 40.3487V40.3313C57.4387 40.1142 57.3774 39.946 57.2548 39.8267C57.1338 39.7074 56.9532 39.6477 56.7129 39.6477C56.4627 39.6477 56.2654 39.7032 56.1213 39.8143C55.9788 39.9237 55.8801 40.0455 55.8255 40.1797L55.127 40.0206C55.2098 39.7886 55.3308 39.6013 55.4899 39.4588C55.6506 39.3146 55.8354 39.2102 56.0442 39.1456C56.253 39.0793 56.4726 39.0462 56.7029 39.0462C56.8554 39.0462 57.017 39.0644 57.1877 39.1009C57.36 39.1357 57.5208 39.2003 57.6699 39.2947C57.8207 39.3892 57.9442 39.5243 58.0403 39.6999C58.1364 39.8739 58.1845 40.1001 58.1845 40.3786V42.9141H57.4586V42.392H57.4288C57.3807 42.4882 57.3087 42.5826 57.2125 42.6754C57.1164 42.7682 56.993 42.8453 56.8422 42.9066C56.6913 42.9679 56.5107 42.9986 56.3002 42.9986ZM56.4618 42.402C56.6673 42.402 56.843 42.3614 56.9888 42.2802C57.1363 42.199 57.2482 42.0929 57.3244 41.962C57.4023 41.8294 57.4412 41.6877 57.4412 41.5369V41.0447C57.4147 41.0713 57.3633 41.0961 57.2871 41.1193C57.2125 41.1409 57.1272 41.1599 57.0311 41.1765C56.935 41.1914 56.8413 41.2055 56.7502 41.2188C56.659 41.2304 56.5828 41.2403 56.5215 41.2486C56.3773 41.2668 56.2456 41.2975 56.1262 41.3406C56.0086 41.3836 55.9141 41.4458 55.8429 41.527C55.7733 41.6065 55.7385 41.7126 55.7385 41.8452C55.7385 42.0291 55.8064 42.1683 55.9423 42.2628C56.0782 42.3556 56.2514 42.402 56.4618 42.402ZM62.3041 39.0959L60.9195 42.9141H60.124L58.7369 39.0959H59.5349L60.5019 42.0341H60.5416L61.5061 39.0959H62.3041ZM64.5183 42.9911C64.1421 42.9911 63.8181 42.9107 63.5463 42.75C63.2762 42.5876 63.0674 42.3597 62.9199 42.0664C62.7741 41.7714 62.7012 41.4259 62.7012 41.0298C62.7012 40.6387 62.7741 40.294 62.9199 39.9957C63.0674 39.6974 63.2729 39.4646 63.5364 39.2972C63.8016 39.1299 64.1114 39.0462 64.4661 39.0462C64.6815 39.0462 64.8903 39.0818 65.0925 39.1531C65.2947 39.2243 65.4761 39.3362 65.6369 39.4886C65.7976 39.6411 65.9244 39.8391 66.0172 40.0827C66.11 40.3247 66.1564 40.6188 66.1564 40.9652V41.2287H63.1213V40.6719H65.4281C65.4281 40.4763 65.3883 40.3031 65.3088 40.1523C65.2292 39.9999 65.1174 39.8797 64.9732 39.7919C64.8307 39.7041 64.6633 39.6602 64.4711 39.6602C64.2623 39.6602 64.08 39.7115 63.9242 39.8143C63.7701 39.9154 63.6507 40.0479 63.5662 40.212C63.4834 40.3744 63.4419 40.5509 63.4419 40.7415V41.1765C63.4419 41.4317 63.4867 41.6488 63.5762 41.8278C63.6673 42.0067 63.7941 42.1435 63.9565 42.2379C64.1189 42.3307 64.3087 42.3771 64.5257 42.3771C64.6666 42.3771 64.795 42.3572 64.911 42.3175C65.027 42.276 65.1273 42.2147 65.2118 42.1335C65.2963 42.0523 65.361 41.9521 65.4057 41.8327L66.1092 41.9595C66.0529 42.1667 65.9518 42.3481 65.8059 42.5039C65.6618 42.658 65.4803 42.7782 65.2615 42.8643C65.0444 42.9489 64.7967 42.9911 64.5183 42.9911ZM67.7243 37.8232V42.9141H66.9811V37.8232H67.7243ZM73.4131 39.1605C73.3866 38.9252 73.2772 38.7429 73.085 38.6136C72.8927 38.4827 72.6508 38.4173 72.3591 38.4173C72.1503 38.4173 71.9697 38.4504 71.8172 38.5167C71.6647 38.5813 71.5463 38.6708 71.4617 38.7852C71.3789 38.8978 71.3374 39.0263 71.3374 39.1705C71.3374 39.2914 71.3656 39.3958 71.422 39.4837C71.48 39.5715 71.5554 39.6452 71.6482 39.7049C71.7426 39.7629 71.8437 39.8118 71.9514 39.8516C72.0592 39.8897 72.1627 39.9212 72.2622 39.946L72.7593 40.0753C72.9217 40.1151 73.0883 40.1689 73.259 40.2369C73.4297 40.3048 73.5879 40.3943 73.7338 40.5053C73.8796 40.6164 73.9972 40.7539 74.0867 40.918C74.1779 41.082 74.2235 41.2784 74.2235 41.5071C74.2235 41.7955 74.1489 42.0515 73.9997 42.2752C73.8522 42.4989 73.6376 42.6754 73.3559 42.8047C73.0758 42.9339 72.7369 42.9986 72.3392 42.9986C71.9581 42.9986 71.6283 42.9381 71.3499 42.8171C71.0715 42.6961 70.8535 42.5246 70.6961 42.3026C70.5387 42.0788 70.4517 41.8137 70.4351 41.5071H71.2057C71.2206 41.6911 71.2803 41.8443 71.3847 41.967C71.4907 42.0879 71.6258 42.1783 71.7899 42.2379C71.9556 42.2959 72.137 42.3249 72.3343 42.3249C72.5513 42.3249 72.7444 42.291 72.9134 42.223C73.0841 42.1534 73.2184 42.0573 73.3161 41.9347C73.4139 41.8104 73.4628 41.6654 73.4628 41.4996C73.4628 41.3488 73.4197 41.2254 73.3335 41.1293C73.249 41.0331 73.1338 40.9536 72.988 40.8906C72.8438 40.8277 72.6806 40.7721 72.4983 40.7241L71.8968 40.56C71.4891 40.449 71.1659 40.2857 70.9273 40.0703C70.6903 39.8549 70.5718 39.5698 70.5718 39.2152C70.5718 38.9219 70.6514 38.6658 70.8105 38.4471C70.9695 38.2283 71.185 38.0585 71.4568 37.9375C71.7285 37.8149 72.0351 37.7536 72.3765 37.7536C72.7212 37.7536 73.0253 37.814 73.2888 37.935C73.5539 38.056 73.7628 38.2225 73.9152 38.4347C74.0677 38.6451 74.1472 38.8871 74.1539 39.1605H73.4131ZM75.0817 42.9141V39.0959H75.8249V42.9141H75.0817ZM75.457 38.5067C75.3278 38.5067 75.2167 38.4637 75.1239 38.3775C75.0328 38.2897 74.9872 38.1853 74.9872 38.0643C74.9872 37.9416 75.0328 37.8372 75.1239 37.7511C75.2167 37.6632 75.3278 37.6193 75.457 37.6193C75.5863 37.6193 75.6965 37.6632 75.7876 37.7511C75.8804 37.8372 75.9268 37.9416 75.9268 38.0643C75.9268 38.1853 75.8804 38.2897 75.7876 38.3775C75.6965 38.4637 75.5863 38.5067 75.457 38.5067ZM76.8248 42.9141V39.0959H77.5383V39.7173H77.5855C77.665 39.5069 77.7951 39.3428 77.9758 39.2251C78.1564 39.1058 78.3727 39.0462 78.6246 39.0462C78.8798 39.0462 79.0935 39.1058 79.2659 39.2251C79.4399 39.3445 79.5683 39.5085 79.6512 39.7173H79.691C79.7821 39.5135 79.9271 39.3511 80.126 39.2301C80.3248 39.1075 80.5618 39.0462 80.8369 39.0462C81.1833 39.0462 81.4658 39.1547 81.6846 39.3718C81.905 39.5889 82.0152 39.9162 82.0152 40.3537V42.9141H81.2719V40.4233C81.2719 40.1648 81.2015 39.9775 81.0606 39.8615C80.9198 39.7455 80.7516 39.6875 80.556 39.6875C80.3141 39.6875 80.126 39.7621 79.9917 39.9112C79.8575 40.0587 79.7904 40.2485 79.7904 40.4805V42.9141H79.0496V40.3761C79.0496 40.1689 78.985 40.0024 78.8557 39.8764C78.7265 39.7505 78.5583 39.6875 78.3511 39.6875C78.2103 39.6875 78.0802 39.7248 77.9608 39.7994C77.8432 39.8723 77.7479 39.9742 77.675 40.1051C77.6037 40.236 77.5681 40.3877 77.5681 40.56V42.9141H76.8248ZM83.0114 44.3459V39.0959H83.7372V39.7148H83.7994C83.8424 39.6353 83.9046 39.5433 83.9858 39.4389C84.067 39.3345 84.1797 39.2434 84.3239 39.1655C84.468 39.0859 84.6586 39.0462 84.8956 39.0462C85.2038 39.0462 85.4789 39.1241 85.7209 39.2798C85.9628 39.4356 86.1526 39.6602 86.2901 39.9535C86.4293 40.2468 86.4989 40.5998 86.4989 41.0124C86.4989 41.4251 86.4302 41.7789 86.2926 42.0739C86.1551 42.3672 85.9661 42.5934 85.7259 42.7525C85.4856 42.9099 85.2113 42.9886 84.9031 42.9886C84.671 42.9886 84.4813 42.9497 84.3338 42.8718C84.188 42.7939 84.0736 42.7028 83.9908 42.5984C83.9079 42.494 83.8441 42.4012 83.7994 42.32H83.7546V44.3459H83.0114ZM83.7397 41.005C83.7397 41.2734 83.7786 41.5088 83.8565 41.7109C83.9344 41.9131 84.0471 42.0714 84.1946 42.1857C84.3421 42.2984 84.5227 42.3548 84.7365 42.3548C84.9586 42.3548 85.1442 42.2959 85.2933 42.1783C85.4425 42.0589 85.5552 41.8974 85.6314 41.6935C85.7093 41.4897 85.7482 41.2602 85.7482 41.005C85.7482 40.7531 85.7101 40.5269 85.6339 40.3263C85.5593 40.1258 85.4466 39.9676 85.2958 39.8516C85.1467 39.7356 84.9602 39.6776 84.7365 39.6776C84.5211 39.6776 84.3388 39.7331 84.1896 39.8441C84.0421 39.9551 83.9303 40.1101 83.854 40.3089C83.7778 40.5078 83.7397 40.7398 83.7397 41.005ZM88.0749 37.8232V42.9141H87.3317V37.8232H88.0749ZM89.5447 44.3459C89.4336 44.3459 89.3325 44.3368 89.2414 44.3185C89.1502 44.302 89.0823 44.2837 89.0376 44.2638L89.2165 43.6548C89.3524 43.6913 89.4734 43.707 89.5795 43.7021C89.6855 43.6971 89.7791 43.6573 89.8604 43.5827C89.9432 43.5082 90.0161 43.3864 90.0791 43.2173L90.1711 42.9638L88.7741 39.0959H89.5695L90.5365 42.0589H90.5763L91.5432 39.0959H92.3412L90.7677 43.4237C90.6948 43.6225 90.6019 43.7907 90.4893 43.9283C90.3766 44.0675 90.2423 44.1719 90.0866 44.2415C89.9308 44.3111 89.7501 44.3459 89.5447 44.3459Z" fill="#494949"/>
<path d="M116.063 23.1016C115.679 23.1011 115.304 23.2112 114.985 23.4179C114.665 23.6245 114.417 23.9185 114.269 24.2625C114.122 24.6065 114.084 24.9852 114.158 25.3506C114.233 25.716 114.417 26.0518 114.688 26.3153C114.96 26.5789 115.305 26.7584 115.681 26.8313C116.058 26.9041 116.448 26.8669 116.802 26.7245C117.157 26.582 117.46 26.3407 117.673 26.031C117.886 25.7213 118 25.3571 118 24.9846C118 24.4856 117.796 24.0069 117.433 23.6538C117.07 23.3008 116.577 23.1021 116.063 23.1016ZM116.063 26.6546C115.723 26.655 115.39 26.5574 115.107 26.3742C114.823 26.1909 114.603 25.9303 114.472 25.6252C114.342 25.32 114.307 24.9842 114.373 24.6601C114.439 24.336 114.603 24.0383 114.844 23.8045C115.084 23.5707 115.391 23.4115 115.724 23.3469C116.058 23.2823 116.404 23.3152 116.718 23.4415C117.033 23.5679 117.302 23.7819 117.491 24.0566C117.68 24.3313 117.781 24.6542 117.781 24.9846C117.78 25.4269 117.599 25.8511 117.277 26.1641C116.955 26.477 116.519 26.6534 116.063 26.6546Z" fill="#494949"/>
<path d="M116.769 25.4461C116.758 25.3459 116.72 25.2503 116.659 25.1688C116.598 25.0872 116.516 25.0226 116.421 24.9812C116.55 24.9438 116.664 24.8664 116.744 24.7607C116.824 24.6551 116.866 24.527 116.864 24.3959C116.867 24.3154 116.852 24.2353 116.819 24.161C116.787 24.0867 116.739 24.0201 116.678 23.9655C116.483 23.8211 116.239 23.7542 115.995 23.7783C115.799 23.7766 115.603 23.7925 115.41 23.8256V26.0917H115.714V25.0974H116C116.279 25.0974 116.403 25.2266 116.474 25.5429C116.507 25.7309 116.56 25.9148 116.634 26.0917H116.946C116.869 25.8816 116.81 25.6657 116.769 25.4461ZM116.026 24.8564H115.714V24.0171C115.813 23.9952 115.914 23.9858 116.015 23.9891C116.337 23.9891 116.558 24.1226 116.558 24.4196C116.561 24.6821 116.352 24.8564 116.026 24.8564Z" fill="#494949"/>
<path d="M37.4336 33.0672L40.3286 19.8516L40.6411 29.2688L37.4336 33.0672Z" fill="#494949"/>
<path d="M22.3045 4.1219C22.3045 2.48856 21.1702 1.136 19.7241 0.946973C19.6631 0.685675 19.515 0.451223 19.3028 0.279998C19.0905 0.108773 18.826 0.0103493 18.5502 0L15.4198 0C15.142 0.0107794 14.8757 0.110651 14.6626 0.283989C14.4495 0.457328 14.3017 0.694354 14.2421 0.957984C12.8281 1.18372 11.7374 2.51792 11.7393 4.12374V14.5459C11.7396 14.7211 11.7535 14.8959 11.7808 15.069C12.0134 16.5867 13.2308 17.7447 14.675 17.7447H19.382C20.8602 17.7447 22.0833 16.5408 22.2818 14.9919C22.3009 14.8452 22.3103 14.6975 22.3101 14.5496L22.3045 4.1219ZM19.3801 16.5408H14.675C13.8281 16.5408 13.1154 15.9132 12.9056 15.0598C12.8679 14.891 12.8501 14.7186 12.8527 14.5459V4.12557C12.8527 3.10886 13.5502 2.26833 14.4519 2.14354C14.5565 2.30527 14.701 2.43913 14.8723 2.53302C15.0436 2.62691 15.2363 2.67786 15.433 2.68126H18.5521C18.7508 2.6764 18.9451 2.62351 19.1174 2.52738C19.2897 2.43124 19.4345 2.2949 19.5389 2.13069C20.4708 2.22062 21.2043 3.07766 21.2043 4.11823V14.5404C21.2096 14.6923 21.1982 14.8442 21.1702 14.9937C20.9812 15.8802 20.2478 16.5408 19.3801 16.5408Z" fill="#F50308"/>
<path d="M4.40347 24.0703V34.5971L2.45829 25.9991C2.45049 25.9713 2.44418 25.9431 2.43939 25.9147C2.36566 25.5458 2.21632 24.0721 4.40347 24.0703Z" fill="#494949"/>
<path d="M3.78013 36.5234L0.171439 29.0779C-0.00779623 28.7181 -0.0480443 28.3078 0.058018 27.9217C0.0854287 27.8218 0.1241 27.7252 0.17333 27.6336C0.257053 27.4798 0.373224 27.345 0.514263 27.2378C0.655302 27.1306 0.818039 27.0534 0.991854 27.0114C1.25316 26.9443 1.52557 26.9281 1.79337 26.9637L3.78013 36.5234Z" fill="#F50308"/>
<path d="M22.3843 36.3585C22.3843 36.2282 22.371 36.096 22.3616 35.9676C22.3623 35.9621 22.3623 35.9565 22.3616 35.951V35.8758C22.3315 35.5615 22.2835 35.249 22.2179 34.9398V34.9288C22.1205 34.4596 21.9807 33.9996 21.8002 33.5542C21.8002 33.5414 21.7907 33.5304 21.7869 33.5175C21.7831 33.5047 21.7586 33.4533 21.7434 33.4203C21.7358 33.399 21.7269 33.3782 21.717 33.3579C21.7019 33.323 21.6886 33.29 21.6716 33.2569C21.6546 33.2239 21.6244 33.156 21.6017 33.1046C21.5317 32.9578 21.4561 32.8147 21.3786 32.6733L21.3106 32.5577C21.3098 32.5522 21.3098 32.5467 21.3106 32.5412V32.5265L21.2425 32.4146L21.1801 32.3118L21.114 32.2127C21.0951 32.1815 21.0743 32.1503 21.0535 32.1209L21.0157 32.0677L20.9419 31.9613C20.8739 31.8677 20.8039 31.7778 20.7321 31.6842L20.6622 31.5979L20.5147 31.4144C19.027 29.6985 16.7661 28.6432 14.0686 28.568C13.6856 28.5378 13.3004 28.5464 12.9193 28.5936C11.6114 28.7321 10.375 29.2429 9.36539 30.0618C9.39189 29.7917 9.47358 29.5293 9.60568 29.2902C9.73778 29.051 9.91764 28.8398 10.1348 28.6689V22.3484C10.1348 22.3007 10.1348 22.2511 10.1348 22.2016C10.115 21.8184 10.0019 21.4453 9.80476 21.1129C9.60759 20.7804 9.33197 20.4982 9.00055 20.2893C8.68455 20.0862 8.32267 19.9603 7.94573 19.9222C7.56776 19.877 7.18417 19.9282 6.83278 20.0707C6.4814 20.2133 6.17436 20.4423 5.94196 20.7352C5.62335 21.131 5.44321 21.6151 5.42778 22.1172C5.42778 22.1373 5.42778 22.1557 5.42778 22.1759L5.41077 23.6441V23.6716L5.36351 27.8008L5.34082 29.5755V34.7141V43.8792C5.34057 44.042 5.37339 44.2033 5.43741 44.3538C5.50142 44.5043 5.59537 44.6411 5.71388 44.7563C5.83239 44.8715 5.97314 44.963 6.12807 45.0253C6.28301 45.0877 6.44909 45.1198 6.61681 45.1198H10.0195V45.5107H10.5412V46.0411C10.535 46.1859 10.5591 46.3305 10.6119 46.4661C10.6648 46.6017 10.7453 46.7255 10.8487 46.8301C10.9521 46.9347 11.0762 47.0179 11.2135 47.0748C11.3509 47.1316 11.4987 47.1609 11.648 47.1609C11.7973 47.1609 11.9451 47.1316 12.0825 47.0748C12.2198 47.0179 12.3439 46.9347 12.4473 46.8301C12.5507 46.7255 12.6312 46.6017 12.6841 46.4661C12.7369 46.3305 12.761 46.1859 12.7548 46.0411V45.5107H13.2765V45.2152H13.4353C13.5412 45.2152 13.647 45.2152 13.7529 45.2152C13.7529 45.2152 13.9703 45.2299 14.3351 45.2152L14.6527 45.1969C14.8682 45.1785 15.1177 45.151 15.3862 45.1088C16.0077 45.0132 16.6168 44.8526 17.2028 44.6298C17.3295 44.5802 17.4561 44.527 17.5809 44.4683H17.596C17.9083 44.3151 18.2107 44.1435 18.5015 43.9544C18.8854 43.7073 19.2477 43.4298 19.5847 43.1249C19.6811 43.0313 19.7737 42.9414 19.8701 42.8276C21.6546 41.1172 22.5525 39.0636 22.3843 36.3585ZM13.8285 41.1429C12.9746 41.1425 12.1399 40.8963 11.4301 40.4354C10.7203 39.9746 10.1672 39.3197 9.84077 38.5536C9.51433 37.7876 9.42921 36.9447 9.59617 36.1317C9.76313 35.3187 10.1747 34.572 10.7788 33.986C11.3829 33.4 12.1523 33.0012 12.9899 32.8398C13.8275 32.6784 14.6956 32.7618 15.4844 33.0794C16.2732 33.397 16.9473 33.9345 17.4214 34.624C17.8955 35.3135 18.1484 36.124 18.148 36.9531C18.148 37.5036 18.0362 38.0487 17.8191 38.5573C17.602 39.0659 17.2838 39.5279 16.8826 39.917C16.4815 40.3061 16.0053 40.6147 15.4812 40.825C14.9572 41.0353 14.3956 41.1434 13.8285 41.1429Z" fill="#F50308"/>
<path fill-rule="evenodd" clip-rule="evenodd" d="M28.8326 16.7714C28.8326 16.7714 29.1426 14.9362 27.3392 14.9453L22.2844 14.9857H21.1634L12.9082 15.0536L11.7872 15.0628L6.6379 15.105C6.6379 15.105 5.36569 15.105 5.37703 16.3511L5.41295 20.5226C5.41295 20.5226 7.43374 18.4139 9.67759 20.1133C10.0976 20.4494 10.4099 20.8952 10.5774 21.398C10.6039 21.4897 10.6265 21.5852 10.6455 21.6843C10.6727 21.8054 10.6929 21.928 10.7059 22.0513C10.7059 22.0513 10.7059 22.0513 10.7059 22.0642C10.7192 22.1926 10.7267 22.3303 10.7267 22.4771L10.7438 28.1865C10.7438 28.1865 15.0216 25.7878 19.653 28.2103C19.653 28.2103 22.9195 29.5353 24.5037 34.3418C24.5037 34.3418 25.8761 39.2859 22.1974 43.2664C21.5023 44.0383 20.694 44.7067 19.7986 45.2503L21.0708 45.265V45.632H21.5925C21.5925 45.632 21.2901 47.1443 22.7003 47.2379C22.7003 47.2379 24.0235 47.3131 23.8061 45.6302H24.3279V45.2375L27.9479 45.2008C27.9479 45.2008 29.0821 45.12 29.0821 43.9693L28.8326 16.7714Z" fill="#494949"/>
<path d="M32.0823 44.981L29.5341 45.4949L28.8574 48.0036L27.0029 42.9219L32.0823 44.981Z" fill="#F50308"/>
</svg>
