<svg xmlns="http://www.w3.org/2000/svg" width="20" height="20" viewBox="0 0 20 20" fill="none">
  <path d="M18.9841 0.625H1.01727C0.80168 0.625 0.626953 0.800078 0.626953 1.01566V18.9825C0.626953 19.1981 0.801719 19.3728 1.01727 19.3728H18.9841C19.1998 19.3728 19.3748 19.198 19.3748 18.9825V1.01566C19.3748 0.800078 19.1997 0.625 18.9841 0.625ZM18.5935 3.74988H12.3441V1.40633H18.5934L18.5935 3.74988ZM11.5631 1.40633V3.74988H1.40789V1.40633H11.5631ZM1.40789 18.5919V4.53082H18.5935V18.5919H1.40789Z" fill="#8D8D8D"/>
  <path d="M13.9063 2.96859C14.1219 2.96859 14.2966 2.79387 14.2966 2.57793C14.2966 2.36238 14.1218 2.1875 13.9063 2.1875C13.6904 2.1875 13.5156 2.36242 13.5156 2.57793C13.5156 2.79387 13.6904 2.96859 13.9063 2.96859Z" fill="#8D8D8D"/>
  <path d="M15.4688 2.96859C15.6844 2.96859 15.8595 2.79387 15.8595 2.57793C15.8595 2.36238 15.6844 2.1875 15.4688 2.1875C15.2529 2.1875 15.0781 2.36242 15.0781 2.57793C15.0781 2.79387 15.2529 2.96859 15.4688 2.96859Z" fill="#8D8D8D"/>
  <path d="M17.0312 2.96859C17.2468 2.96859 17.422 2.79387 17.422 2.57793C17.422 2.36238 17.2468 2.1875 17.0312 2.1875C16.8157 2.1875 16.6406 2.36242 16.6406 2.57793C16.6406 2.79387 16.8157 2.96859 17.0312 2.96859Z" fill="#8D8D8D"/>
  <path d="M3.36102 8.04652V6.09363H5.70457C5.92012 6.09363 6.09523 5.91867 6.09523 5.70297C6.09523 5.48723 5.92012 5.3125 5.70457 5.3125H2.97035C2.7548 5.3125 2.58008 5.48723 2.58008 5.70297V8.04652C2.58008 8.26227 2.75484 8.43699 2.97035 8.43699C3.18625 8.43699 3.36102 8.2623 3.36102 8.04652Z" fill="#8D8D8D"/>
  <path d="M16.6411 13.5156H3.36137C3.14578 13.5156 2.9707 13.6904 2.9707 13.9059C2.9707 14.1218 3.14578 14.2966 3.36137 14.2966H16.6411C16.8567 14.2966 17.0317 14.1218 17.0317 13.9059C17.0318 13.6904 16.8566 13.5156 16.6411 13.5156Z" fill="#8D8D8D"/>
  <path d="M16.6411 15.0781H3.36137C3.14578 15.0781 2.9707 15.2529 2.9707 15.4684C2.9707 15.6843 3.14578 15.8591 3.36137 15.8591H16.6411C16.8567 15.8591 17.0317 15.6843 17.0317 15.4684C17.0318 15.2529 16.8566 15.0781 16.6411 15.0781Z" fill="#8D8D8D"/>
  <path d="M16.6411 16.6406H3.36137C3.14578 16.6406 2.9707 16.8154 2.9707 17.0312C2.9707 17.2468 3.14578 17.4215 3.36137 17.4215H16.6411C16.8567 17.4215 17.0317 17.2467 17.0317 17.0312C17.0318 16.8154 16.8566 16.6406 16.6411 16.6406Z" fill="#8D8D8D"/>
  <path d="M3.54461 9.9404L6.66949 11.8933C6.85188 12.0074 7.09301 11.9525 7.20781 11.769C7.32188 11.5862 7.26617 11.3451 7.08344 11.2306L4.48883 9.6093L7.08344 7.98751C7.26617 7.87305 7.32188 7.63211 7.20781 7.44922C7.09336 7.26626 6.85223 7.21079 6.66949 7.32501L3.54461 9.27793C3.30043 9.43032 3.30004 9.78743 3.54461 9.9404Z" fill="#8D8D8D"/>
  <path d="M12.7939 11.769C12.9087 11.9524 13.1498 12.007 13.3322 11.8933L16.4566 9.94041C16.7009 9.78783 16.7016 9.43112 16.4566 9.27795L13.3322 7.32502C13.1491 7.21076 12.9079 7.26627 12.7939 7.44924C12.6794 7.63217 12.7351 7.87311 12.9179 7.98752L15.5129 9.60932L12.9179 11.2306C12.7351 11.3451 12.6794 11.5862 12.7939 11.769Z" fill="#8D8D8D"/>
  <path d="M8.22632 12.6715C8.40788 12.7882 8.64941 12.736 8.76613 12.5544L12.2813 7.08633C12.398 6.90472 12.3454 6.66304 12.1638 6.54652C11.9825 6.42976 11.7407 6.48238 11.624 6.66363L8.10882 12.1321C7.99245 12.3133 8.04472 12.5552 8.22632 12.6715Z" fill="#8D8D8D"/>
</svg>