<svg xmlns="http://www.w3.org/2000/svg" width="20" height="20" viewBox="0 0 20 20" fill="none">
  <path d="M7.03125 6.08617C7.03125 7.87405 8.4858 9.2983 10.2434 9.2983C10.91 9.2983 11.5161 9.11648 12.0009 8.75284C12.0312 8.75284 12.0312 8.72254 12.0616 8.72254C12.91 8.14678 13.4555 7.17708 13.4555 6.05587C13.4555 4.26799 12.0009 2.84375 10.2434 2.84375C8.4858 2.84375 7.03125 4.2983 7.03125 6.08617Z" fill="white"/>
  <path d="M16.1218 14.8745C16.1218 12.3897 14.5764 10.1776 12.243 9.35938C11.0309 10.0866 9.51574 10.117 8.27332 9.35938C5.93999 10.2079 4.39453 12.3897 4.39453 14.8745C4.39453 16.3291 7.42484 17.117 10.2733 17.117C13.1218 17.117 16.1218 16.3291 16.1218 14.8745Z" fill="white"/>
  <path d="M2.60547 10.6061C2.60547 11.6061 3.48426 12.303 4.36304 12.2121C4.69638 11.4545 5.18123 10.7879 5.78729 10.2121C5.60547 9.51515 4.9691 9 4.24183 9C3.33274 9 2.60547 9.72727 2.60547 10.6061Z" fill="white"/>
  <path d="M0.667969 14.9344C0.667969 15.0859 0.758878 15.2375 0.910393 15.3587C1.48615 15.8435 2.84979 16.0859 4.21342 15.995C3.48615 15.4496 3.30433 14.8738 3.30433 14.4193C3.30433 13.692 3.42554 13.0253 3.63767 12.3587C3.30433 12.3284 2.971 12.2375 2.66797 12.0859C1.42554 12.5405 0.667969 13.6617 0.667969 14.9344Z" fill="white"/>
  <path d="M19.3355 15.3875C19.3355 14.1148 18.5476 12.9936 17.3658 12.5391C17.0627 12.7209 16.7294 12.8118 16.3961 12.8118C16.6082 13.4482 16.7294 14.1451 16.7294 14.8724C16.7294 15.5088 16.3961 16.0239 15.8203 16.4482C16.9415 16.5088 19.3355 16.2663 19.3355 15.3875Z" fill="white"/>
  <path d="M16.3033 9C15.5457 9 14.9396 9.48485 14.7578 10.2121C15.3639 10.7879 15.8487 11.4545 16.1821 12.2424C17.0911 12.3333 17.9093 11.6061 17.9093 10.6364C17.9093 9.72727 17.1821 9 16.3033 9Z" fill="white"/>
</svg>