<svg xmlns="http://www.w3.org/2000/svg" width="20" height="20" viewBox="0 0 20 20" fill="none">
  <path d="M19.98 16.9193V8.22237C20.0963 6.92746 18.5434 5.85424 17.751 5.02305C17.7397 5.01459 17.7278 5.00689 17.7155 5L17.0887 4.38983V1.98305C17.0878 1.4568 16.8724 0.952413 16.4899 0.580616C16.1074 0.208819 15.5889 -7.66242e-07 15.0484 0H4.93308C4.39297 0.000538092 3.87514 0.209617 3.49317 0.581375C3.11119 0.953133 2.89626 1.45722 2.89553 1.98305V4.39186L2.2688 5.00203C2.25678 5.00886 2.24516 5.01633 2.23398 5.02441L0.747256 6.4678C0.509501 6.69746 0.321009 6.97084 0.192736 7.27205C0.0644632 7.57327 -0.00103047 7.8963 6.2187e-05 8.22237V16.9193C0.00284763 17.1491 0.0543783 17.3722 6.2187e-05 17.5966C-0.00968685 18.9098 1.12817 20.002 2.47214 20H17.5114C19.2767 19.962 20.1458 18.5037 19.98 16.9193ZM17.0859 5.82441L18.4961 7.18712C18.7795 7.46102 18.9383 7.8339 18.9369 8.22237V8.77966L17.0859 9.65085V5.82441ZM3.94007 1.98305C3.94043 1.72682 4.0452 1.48119 4.23136 1.30007C4.41753 1.11895 4.66989 1.01713 4.93308 1.01695H15.0484C15.3116 1.01713 15.5639 1.11895 15.7501 1.30007C15.9363 1.48119 16.041 1.72682 16.0414 1.98305V10.1444L10.7491 12.6346C10.5127 12.7473 10.2529 12.8059 9.98969 12.8059C9.72646 12.8059 9.46671 12.7473 9.23031 12.6346L3.93798 10.1444L3.94007 1.98305ZM1.0446 8.22034C1.04394 8.02795 1.08257 7.83735 1.15824 7.65962C1.23391 7.4819 1.34512 7.32059 1.4854 7.18508L2.89553 5.82237V9.65085L1.0446 8.77966V8.22034ZM18.9376 16.9193C18.9202 18.1864 18.4696 18.9492 17.5163 18.983H2.47005C2.35437 18.9841 2.23916 18.9686 2.12814 18.9369C1.4471 18.7586 1.04878 18.0346 1.04878 16.9193V9.91119L8.77837 13.5498C9.15655 13.7302 9.57207 13.8239 9.99317 13.8239C10.4143 13.8239 10.8298 13.7302 11.208 13.5498L18.9376 9.91119V16.9193Z" fill="#8D8D8D"/>
  <path d="M14.4602 6.44809C14.4602 6.31324 14.4052 6.1839 14.3073 6.08855C14.2093 5.99319 14.0765 5.93962 13.938 5.93962H6.03985C5.90133 5.93962 5.76849 5.99319 5.67055 6.08855C5.5726 6.1839 5.51758 6.31324 5.51758 6.44809C5.51758 6.58295 5.5726 6.71228 5.67055 6.80764C5.76849 6.903 5.90133 6.95657 6.03985 6.95657H13.938C14.0765 6.95657 14.2093 6.903 14.3073 6.80764C14.4052 6.71228 14.4602 6.58295 14.4602 6.44809ZM12.8349 9.07521C12.8349 8.94036 12.7799 8.81102 12.682 8.71567C12.584 8.62031 12.4512 8.56674 12.3127 8.56674H7.66585C7.52733 8.56674 7.39449 8.62031 7.29655 8.71567C7.1986 8.81102 7.14358 8.94036 7.14358 9.07521C7.14358 9.21007 7.1986 9.3394 7.29655 9.43476C7.39449 9.53011 7.52733 9.58369 7.66585 9.58369H12.3127C12.4512 9.58369 12.584 9.53011 12.682 9.43476C12.7799 9.3394 12.8349 9.21007 12.8349 9.07521ZM7.66585 4.32945H12.3127C12.9944 4.32674 12.9965 3.31521 12.3127 3.3125H7.66585C6.98411 3.31521 6.98133 4.32674 7.66585 4.32945Z" fill="#8D8D8D"/>
</svg>