<svg xmlns="http://www.w3.org/2000/svg" width="20" height="21" viewBox="0 0 20 21" fill="none">
  <g clip-path="url(#clip0_2492_30642)">
    <path d="M15.353 7.22049C15.8465 6.79145 16.1271 6.16888 16.1271 5.51403V2.05598H17.4174C17.7723 2.05598 18.0626 1.76566 18.0626 1.4108C18.0626 1.05595 17.7723 0.765625 17.4175 0.765625H2.57877C2.22392 0.765625 1.93359 1.05595 1.93359 1.4108C1.93359 1.76566 2.22392 2.05598 2.57877 2.05598H3.86908V5.8302C3.86908 6.48827 4.15296 7.11406 4.65298 7.54311L7.51747 10.027C7.73361 10.2141 7.85621 10.4786 7.85621 10.7657C7.85621 11.0528 7.73683 11.3173 7.51747 11.5044L4.65298 13.985C4.15296 14.4173 3.86908 15.0431 3.86908 15.7012V19.4754H2.57877C2.22392 19.4754 1.93359 19.7657 1.93359 20.1206C1.93359 20.4754 2.22392 20.7657 2.57877 20.7657H17.4174C17.7723 20.7657 18.0626 20.4754 18.0626 20.1206C18.0626 19.7657 17.7723 19.4754 17.4174 19.4754H16.1271V16.0173C16.127 15.6942 16.0579 15.3748 15.9244 15.0805C15.7909 14.7862 15.596 14.5238 15.353 14.3109L12.1401 11.5012C11.9239 11.314 11.8078 11.0528 11.8078 10.7657C11.8078 10.4786 11.9272 10.2173 12.1401 10.0302L15.353 7.22049ZM11.2916 12.4721L14.5045 15.2818C14.6091 15.3736 14.6928 15.4868 14.7501 15.6136C14.8074 15.7405 14.837 15.8781 14.8368 16.0173V19.4753H5.15939V15.7011C5.15939 15.4172 5.28199 15.1495 5.4949 14.9624L8.35939 12.4818C8.85619 12.0495 9.14329 11.4269 9.14329 10.7688C9.14329 10.1108 8.85941 9.48499 8.35939 9.05594L5.4949 6.57209C5.38951 6.47932 5.30508 6.36518 5.24724 6.23725C5.18939 6.10933 5.15944 5.97055 5.15939 5.83015V2.05593H14.8368V5.51398C14.8368 5.79464 14.7142 6.06235 14.5013 6.24947L11.2884 9.05917C10.7981 9.48821 10.5142 10.1108 10.5142 10.7656C10.5142 11.4205 10.7981 12.043 11.2916 12.4721Z" fill="white"/>
    <path d="M14.1918 5.51024V4.99411C14.1918 4.79409 14.0305 4.63281 13.8337 4.63281H6.16276C5.96597 4.63281 5.80469 4.79409 5.80469 4.99089V5.82636C5.80469 6.01671 5.88855 6.19733 6.03049 6.31993L8.84986 8.7651C9.19826 9.06833 9.48537 9.44574 9.63698 9.88123C10.0047 10.9264 9.68216 12.0361 8.89504 12.7167L6.03054 15.2006C5.8886 15.3264 5.80474 15.5038 5.80474 15.6941V18.5361C5.80474 18.6974 5.93379 18.8264 6.09184 18.8264H13.9048C13.9809 18.8262 14.0538 18.7959 14.1076 18.7421C14.1614 18.6883 14.1917 18.6154 14.1919 18.5393V16.0135C14.1919 15.8231 14.1112 15.6457 13.9693 15.5199L10.8112 12.7554C10.4661 12.4522 10.1822 12.078 10.0273 11.6457C9.65637 10.6038 9.97571 9.49732 10.7564 8.81023L13.9693 6.00054C14.1111 5.87799 14.1918 5.69731 14.1918 5.51024Z" fill="white"/>
  </g>
  <defs>
    <clipPath id="clip0_2492_30642">
      <rect width="20" height="20" fill="white" transform="translate(0 0.765625)"/>
    </clipPath>
  </defs>
</svg>