<svg xmlns="http://www.w3.org/2000/svg" width="17" height="20" viewBox="0 0 17 20" fill="none">
  <path d="M2.50113 4.6875C1.4145 4.6875 0.851099 5.25562 0.57944 5.79894C0.41497 6.13497 0.323972 6.50218 0.312505 6.87613V12.8125C0.312505 12.8125 0.307781 13.3463 0.57944 13.8897C0.851099 14.433 1.41804 15.0011 2.50113 15.0011H5.16811V14.3751H2.50113C1.71096 14.3751 1.33772 14.0042 1.14047 13.6097C0.943226 13.2164 0.937321 12.8125 0.937321 12.8125V6.87613C0.937321 6.87613 0.943226 6.47218 1.14047 6.07887C1.33772 5.68437 1.71568 5.31232 2.50113 5.31232H9.37528C10.1666 5.31232 10.5399 5.68437 10.7371 6.07887C10.9344 6.47218 10.9379 6.87613 10.9379 6.87613V7.50212H11.5639V6.87613C11.5639 6.87613 11.5663 6.34226 11.2958 5.79894C11.0241 5.25562 10.4607 4.6875 9.37646 4.6875H2.50113Z" fill="#8A8A8A"/>
  <path d="M5.93903 0.313681C5.02902 0.318034 4.15756 0.681625 3.5143 1.32533C2.87103 1.96903 2.50804 2.84074 2.50432 3.75076L2.50195 5.00039H3.12795L3.12913 3.75076C3.13193 3.00596 3.42896 2.29246 3.9555 1.7657C4.48204 1.23893 5.19542 0.941608 5.94021 0.938497C6.6848 0.941606 7.398 1.23877 7.92451 1.76528C8.45102 2.29178 8.74818 3.00499 8.75129 3.74958V5.00157H9.37729V3.74958C9.37325 2.83925 9.00983 1.96736 8.36613 1.32366C7.72242 0.679956 6.85053 0.31654 5.94021 0.3125L5.93903 0.313681Z" fill="#8A8A8A"/>
  <path d="M5.9384 2.1875C5.02657 2.1875 4.37695 2.8761 4.37695 3.75131V5.00094H5.00295V3.75131C5.00295 3.17965 5.40689 2.81232 5.9384 2.81232C6.46518 2.81232 6.8774 3.18083 6.8774 3.75131L6.87503 5.00094H7.50103L7.50339 3.75131C7.50339 2.87728 6.85141 2.1875 5.9384 2.1875Z" fill="#8A8A8A"/>
  <path d="M9.37638 7.1875C9.304 7.18746 9.23384 7.2125 9.17785 7.25838C9.12186 7.30425 9.0835 7.3681 9.06929 7.43908L8.94882 8.03437C8.42775 8.16956 7.9289 8.37921 7.46769 8.65682L6.95153 8.31547C6.89138 8.27544 6.81923 8.25745 6.74733 8.26455C6.67542 8.27165 6.60819 8.30342 6.55704 8.35445L5.23063 9.68086C5.18018 9.73185 5.14878 9.79864 5.14169 9.87002C5.13459 9.9414 5.15223 10.0131 5.19166 10.073L5.53064 10.5809C5.25488 11.0462 5.048 11.5491 4.91645 12.0738L4.31408 12.1931C4.2431 12.2073 4.17925 12.2457 4.13338 12.3017C4.08751 12.3577 4.06246 12.4278 4.0625 12.5002V14.3735C4.06246 14.4459 4.08751 14.516 4.13338 14.572C4.17925 14.628 4.2431 14.6664 4.31408 14.6806L4.90937 14.7987C5.0452 15.3207 5.25544 15.8203 5.53536 16.2833L5.19166 16.8007C5.15162 16.8608 5.13363 16.933 5.14073 17.0049C5.14784 17.0768 5.1796 17.144 5.23063 17.1952L6.55704 18.518C6.60804 18.5693 6.6752 18.6012 6.74711 18.6086C6.81903 18.6159 6.89125 18.5981 6.95153 18.5582L7.45706 18.2216C7.92242 18.498 8.42558 18.7023 8.95118 18.8358L9.06929 19.4346C9.0835 19.5056 9.12186 19.5694 9.17785 19.6153C9.23384 19.6612 9.304 19.6862 9.37638 19.6862H11.2508C11.3232 19.6862 11.3934 19.6612 11.4494 19.6153C11.5054 19.5694 11.5437 19.5056 11.5579 19.4346L11.676 18.8417C12.2064 18.7117 12.7119 18.5074 13.182 18.231L13.6757 18.5582C13.7358 18.5982 13.808 18.6162 13.8799 18.6091C13.9518 18.602 14.019 18.5703 14.0702 18.5192L15.3966 17.1952C15.4476 17.144 15.4794 17.0768 15.4865 17.0049C15.4936 16.933 15.4756 16.8608 15.4356 16.8007L15.106 16.3046C15.3836 15.8333 15.5903 15.3278 15.7202 14.7975L16.3131 14.6794C16.3839 14.6649 16.4475 14.6265 16.4931 14.5705C16.5388 14.5145 16.5636 14.4445 16.5635 14.3723V12.5002C16.5636 12.428 16.5388 12.358 16.4931 12.302C16.4475 12.246 16.3839 12.2076 16.3131 12.1931L15.7308 12.0785C15.5941 11.5513 15.3812 11.0467 15.0989 10.5809L15.4356 10.073C15.475 10.0131 15.4926 9.9414 15.4855 9.87002C15.4784 9.79864 15.447 9.73185 15.3966 9.68086L14.0702 8.35445C14.019 8.30342 13.9518 8.27165 13.8799 8.26455C13.808 8.25745 13.7358 8.27544 13.6757 8.31547L13.1749 8.64973C12.7073 8.37299 12.202 8.1657 11.6749 8.03437L11.5579 7.43908C11.5437 7.3681 11.5054 7.30425 11.4494 7.25838C11.3934 7.2125 11.3232 7.18746 11.2508 7.1875H9.37638ZM9.63151 7.8135H10.9969L11.0985 8.31547C11.1105 8.37543 11.1399 8.43053 11.1829 8.47398C11.226 8.51743 11.2808 8.54732 11.3406 8.55997C11.9481 8.68609 12.5268 8.92399 13.0473 9.26156C13.0983 9.29425 13.1578 9.31142 13.2183 9.311C13.2789 9.31058 13.3381 9.29259 13.3887 9.25919L13.8103 8.97809L14.7753 9.94188L14.4895 10.3683C14.4554 10.4196 14.4373 10.4798 14.4373 10.5413C14.4373 10.6029 14.4554 10.663 14.4895 10.7143C14.832 11.2329 15.0765 11.8092 15.2088 12.4175C15.2218 12.4769 15.2519 12.5312 15.2953 12.5738C15.3388 12.6164 15.3936 12.6454 15.4533 12.6573L15.9399 12.7565V14.1172L15.4391 14.2187C15.3788 14.231 15.3235 14.2607 15.28 14.3042C15.2365 14.3476 15.2068 14.403 15.1946 14.4632C15.0703 15.0731 14.8331 15.6543 14.4954 16.177C14.4624 16.2282 14.4451 16.2878 14.4456 16.3487C14.446 16.4095 14.4641 16.4689 14.4977 16.5196L14.7753 16.9318L13.8103 17.8956L13.3969 17.6216C13.3462 17.5879 13.2869 17.5698 13.226 17.5694C13.1652 17.5689 13.1056 17.5863 13.0544 17.6192C12.5315 17.9562 11.9503 18.1925 11.3406 18.3161C11.28 18.3285 11.2245 18.3585 11.181 18.4025C11.1374 18.4464 11.1079 18.5022 11.0961 18.5629L10.9969 19.0614H9.63151L9.52993 18.5558C9.51787 18.4959 9.48851 18.4408 9.44548 18.3973C9.40245 18.3539 9.34763 18.324 9.2878 18.3113C8.68306 18.185 8.10667 17.9464 7.58698 17.6098C7.53583 17.5768 7.4762 17.5595 7.41536 17.5599C7.35453 17.5603 7.29514 17.5785 7.24445 17.6121L6.81688 17.8956L5.85309 16.9318L6.14364 16.4948C6.17778 16.4438 6.19619 16.384 6.19661 16.3227C6.19703 16.2614 6.17944 16.2013 6.14601 16.1499C5.80613 15.6349 5.56464 15.0615 5.43379 14.4585C5.42073 14.3991 5.39066 14.3448 5.34724 14.3022C5.30382 14.2596 5.24893 14.2306 5.18929 14.2187L4.6885 14.1172V12.7565L5.19638 12.6549C5.25612 12.6427 5.31096 12.6132 5.35419 12.5702C5.39741 12.5272 5.42713 12.4725 5.43969 12.4128C5.56725 11.8069 5.80584 11.2317 6.14128 10.712C6.17422 10.6608 6.19153 10.6012 6.19111 10.5404C6.19069 10.4795 6.17256 10.4201 6.13892 10.3695L5.85309 9.94188L6.81688 8.97809L7.2539 9.26864C7.30519 9.30267 7.36538 9.32082 7.42694 9.32082C7.48849 9.32082 7.54868 9.30267 7.59997 9.26864C8.11531 8.92846 8.68916 8.68658 9.29252 8.55524C9.35192 8.54219 9.40623 8.51211 9.44881 8.46869C9.49139 8.42527 9.5204 8.37039 9.53229 8.31075L9.63151 7.8135Z" fill="#8A8A8A"/>
  <path d="M10.3119 9.37618C9.23499 9.37743 8.20256 9.80578 7.44108 10.5673C6.6796 11.3287 6.25125 12.3612 6.25 13.4381C6.25094 14.5154 6.67931 15.5483 7.44108 16.3101C8.20285 17.0718 9.23577 17.5002 10.3131 17.5011C12.5525 17.5011 14.375 15.6775 14.375 13.4381C14.375 11.1987 12.5525 9.375 10.3119 9.375V9.37618ZM10.3119 10.001C12.2147 10.001 13.7525 11.5365 13.7525 13.4381C13.7525 15.3397 12.2147 16.8751 10.3119 16.8751C8.41028 16.8751 6.87482 15.3397 6.87482 13.4381C6.87482 11.5365 8.41028 10.001 10.3119 10.001Z" fill="#8A8A8A"/>
  <path d="M10.3125 10.625C9.45386 10.625 8.75109 11.3278 8.75109 12.1864C8.75109 13.0463 9.45386 13.7514 10.3125 13.7514C10.7271 13.7499 11.1243 13.5845 11.4174 13.2913C11.7106 12.9982 11.876 12.601 11.8775 12.1864C11.8775 11.3278 11.1724 10.625 10.3125 10.625ZM10.3125 11.251C10.4358 11.2502 10.5579 11.2739 10.672 11.3205C10.786 11.3672 10.8897 11.4361 10.977 11.523C11.0643 11.61 11.1335 11.7134 11.1806 11.8273C11.2277 11.9411 11.2518 12.0632 11.2515 12.1864C11.252 12.3099 11.228 12.4322 11.181 12.5463C11.134 12.6605 11.0648 12.7642 10.9775 12.8515C10.8903 12.9387 10.7866 13.0079 10.6724 13.0549C10.5583 13.1019 10.436 13.1259 10.3125 13.1254C10.1893 13.1258 10.0672 13.1017 9.95336 13.0545C9.83949 13.0074 9.73609 12.9382 9.64911 12.8509C9.56214 12.7636 9.49332 12.6599 9.44663 12.5459C9.39994 12.4318 9.3763 12.3097 9.37708 12.1864C9.37708 11.6656 9.79166 11.2498 10.3125 11.2498V11.251ZM10.3125 14.0621C9.66531 14.0632 9.04365 14.3148 8.57792 14.7642C8.11219 15.2137 7.83857 15.826 7.81445 16.4728L8.44045 16.4964C8.4567 16.0109 8.66113 15.5508 9.0105 15.2133C9.35987 14.8759 9.82679 14.6875 10.3125 14.6881C11.3259 14.6881 12.1527 15.483 12.1882 16.4952L12.8118 16.4751C12.7883 15.8277 12.5147 15.2146 12.0487 14.7647C11.5827 14.3147 10.9604 14.0629 10.3125 14.0621Z" fill="#8A8A8A"/>
</svg>