<svg xmlns="http://www.w3.org/2000/svg" width="21" height="21" viewBox="0 0 21 21" fill="none">
  <g clip-path="url(#clip0_2492_30625)">
    <path d="M9.53125 6.53125V5.28125H2.03125C1.3425 5.28125 0.78125 5.8425 0.78125 6.53125V9.03125H9.795C9.62125 8.2675 9.53125 7.445 9.53125 6.53125ZM20.73 11.5313C19.8775 12.845 18.5775 13.9625 16.715 15.0325C16.4288 15.1963 16.1062 15.2813 15.7812 15.2813C15.4563 15.2813 15.1337 15.1962 14.8512 15.035C12.9887 13.9625 11.6888 12.8438 10.835 11.5313H0.78125V17.7813C0.78125 18.4713 1.3425 19.0313 2.03125 19.0313H19.5312C20.2213 19.0313 20.7812 18.4713 20.7812 17.7813V11.5313H20.73ZM6.40625 15.2813H3.90625C3.56125 15.2813 3.28125 15.0013 3.28125 14.6563C3.28125 14.3113 3.56125 14.0313 3.90625 14.0313H6.40625C6.75125 14.0313 7.03125 14.3113 7.03125 14.6563C7.03125 15.0013 6.75125 15.2813 6.40625 15.2813Z" fill="white"/>
    <path d="M20.4025 3.45687L16.0275 1.58187C15.9495 1.54847 15.8655 1.53125 15.7806 1.53125C15.6958 1.53125 15.6118 1.54847 15.5338 1.58187L11.1588 3.45687C10.93 3.55437 10.7812 3.78062 10.7812 4.03062V6.53062C10.7812 9.96937 12.0525 11.9794 15.47 13.9481C15.5663 14.0031 15.6737 14.0306 15.7812 14.0306C15.8888 14.0306 15.9962 14.0031 16.0925 13.9481C19.51 11.9844 20.7812 9.97437 20.7812 6.53062V4.03062C20.7812 3.78062 20.6325 3.55437 20.4025 3.45687ZM18.145 6.29687L15.645 9.42187C15.525 9.56937 15.345 9.65562 15.1562 9.65562H15.13C15.0317 9.65133 14.9358 9.62398 14.85 9.57578C14.7642 9.52757 14.691 9.45986 14.6362 9.37812L13.3862 7.50312C13.195 7.21562 13.2725 6.82812 13.56 6.63687C13.845 6.44687 14.2338 6.52187 14.4263 6.81062L15.2025 7.97437L17.1675 5.51687C17.3838 5.24812 17.7775 5.20562 18.0463 5.41937C18.3163 5.63312 18.3587 6.02687 18.145 6.29687Z" fill="white"/>
  </g>
  <defs>
    <clipPath id="clip0_2492_30625">
      <rect width="20" height="20" fill="white" transform="translate(0.78125 0.28125)"/>
    </clipPath>
  </defs>
</svg>