<svg xmlns="http://www.w3.org/2000/svg" width="21" height="20" viewBox="0 0 21 20" fill="none">
  <g clip-path="url(#clip0_2492_31393)">
    <path d="M19.1717 10.2591C19.0913 10.0945 19.0913 9.90564 19.1717 9.74103L19.9177 8.21506C20.333 7.36542 20.0039 6.35273 19.1685 5.90949L17.6681 5.1134C17.5063 5.02754 17.3953 4.87473 17.3636 4.6943L17.0702 3.02131C16.9068 2.08983 16.0451 1.46389 15.1089 1.59635L13.4272 1.83424C13.2457 1.85987 13.0662 1.80151 12.9345 1.67413L11.7138 0.493195C11.034 -0.164379 9.9692 -0.164418 9.28952 0.493195L8.06875 1.67424C7.93703 1.80166 7.75754 1.85991 7.57606 1.83436L5.89431 1.59647C4.95779 1.46393 4.09647 2.08994 3.93307 3.02142L3.63963 4.69434C3.60795 4.87481 3.49698 5.02758 3.33514 5.11348L1.83476 5.90957C0.999375 6.35277 0.670314 7.36554 1.08562 8.21518L1.83152 9.74111C1.91199 9.90576 1.91199 10.0946 1.83152 10.2592L1.08559 11.7851C0.670275 12.6348 0.999336 13.6475 1.83472 14.0907L3.3351 14.8868C3.49698 14.9726 3.60795 15.1255 3.63963 15.3059L3.93307 16.9789C4.08182 17.8268 4.80892 18.4215 5.64458 18.4214C5.72689 18.4214 5.8104 18.4157 5.89435 18.4038L7.57609 18.1659C7.75746 18.1402 7.93707 18.1986 8.06879 18.326L9.28952 19.507C9.62944 19.8358 10.0655 20.0002 10.5016 20.0001C10.9377 20.0001 11.374 19.8357 11.7137 19.507L12.9345 18.326C13.0662 18.1986 13.2457 18.1404 13.4272 18.1659L15.1089 18.4038C16.0456 18.5363 16.9068 17.9103 17.0702 16.9788L17.3637 15.3059C17.3953 15.1255 17.5063 14.9727 17.6681 14.8868L19.1685 14.0907C20.0039 13.6475 20.333 12.6347 19.9177 11.7851L19.1717 10.2591ZM8.19457 4.80926C9.36065 4.80926 10.3094 5.75797 10.3094 6.92406C10.3094 8.09014 9.36065 9.03885 8.19457 9.03885C7.02848 9.03885 6.07977 8.09014 6.07977 6.92406C6.07977 5.75797 7.02848 4.80926 8.19457 4.80926ZM7.10301 14.2143C6.99039 14.3269 6.84278 14.3832 6.6952 14.3832C6.54762 14.3832 6.39997 14.3269 6.28739 14.2143C6.06216 13.9891 6.06216 13.6239 6.28739 13.3986L13.9002 5.78582C14.1254 5.56059 14.4906 5.56059 14.7159 5.78582C14.9411 6.01105 14.9411 6.37625 14.7159 6.60148L7.10301 14.2143ZM12.8086 15.1909C11.6425 15.1909 10.6938 14.2422 10.6938 13.0761C10.6938 11.91 11.6425 10.9613 12.8086 10.9613C13.9747 10.9613 14.9234 11.91 14.9234 13.0761C14.9234 14.2422 13.9747 15.1909 12.8086 15.1909Z" fill="#F50308"/>
    <path d="M12.8089 12.1094C12.2789 12.1094 11.8477 12.5406 11.8477 13.0706C11.8477 13.6007 12.2789 14.0319 12.8089 14.0319C13.339 14.0319 13.7702 13.6007 13.7702 13.0706C13.7702 12.5406 13.339 12.1094 12.8089 12.1094Z" fill="#F50308"/>
    <path d="M8.19171 5.96094C7.66168 5.96094 7.23047 6.39215 7.23047 6.92218C7.23047 7.45222 7.66168 7.88347 8.19171 7.88347C8.72175 7.88347 9.153 7.45226 9.153 6.92218C9.15296 6.39219 8.72175 5.96094 8.19171 5.96094Z" fill="#F50308"/>
  </g>
  <defs>
    <clipPath id="clip0_2492_31393">
      <rect width="20" height="20" fill="white" transform="translate(0.5)"/>
    </clipPath>
  </defs>
</svg>