<svg xmlns="http://www.w3.org/2000/svg" width="20" height="20" viewBox="0 0 20 20" fill="none">
  <path d="M17.4994 14.5855V17.5021H13.7494V13.3355H16.2494C16.4192 13.3113 16.5923 13.3269 16.755 13.3811C16.9177 13.4354 17.0655 13.5268 17.1868 13.648C17.3081 13.7693 17.3995 13.9172 17.4537 14.0799C17.508 14.2426 17.5236 14.4157 17.4994 14.5855ZM3.74936 11.6688C3.57957 11.6446 3.40646 11.6602 3.24376 11.7145C3.08105 11.7687 2.93321 11.8601 2.81193 11.9814C2.69065 12.1027 2.59927 12.2505 2.54502 12.4132C2.49077 12.5759 2.47513 12.749 2.49936 12.9188V17.5021H6.24936V11.6688H3.74936ZM12.4994 10.4188C12.5236 10.249 12.508 10.0759 12.4537 9.91321C12.3995 9.7505 12.3081 9.60266 12.1868 9.48138C12.0655 9.3601 11.9177 9.26872 11.755 9.21447C11.5923 9.16022 11.4192 9.14459 11.2494 9.16881H8.74936C8.57957 9.14459 8.40646 9.16022 8.24376 9.21447C8.08105 9.26872 7.93321 9.3601 7.81193 9.48138C7.69065 9.60266 7.59927 9.7505 7.54502 9.91321C7.49077 10.0759 7.47513 10.249 7.49936 10.4188V17.5021H12.4994V10.4188ZM9.68769 2.30214L9.05853 3.57131C9.0351 3.61843 9.00055 3.65914 8.95786 3.68992C8.91518 3.7207 8.86564 3.74063 8.81353 3.74798L7.36103 3.95798C7.30106 3.96657 7.24469 3.99179 7.19833 4.03078C7.15197 4.06978 7.11746 4.12098 7.09871 4.17859C7.07997 4.2362 7.07775 4.29791 7.0923 4.35672C7.10685 4.41553 7.13759 4.46908 7.18103 4.51131L8.23186 5.53048C8.26965 5.567 8.29792 5.61223 8.31419 5.6622C8.33046 5.71217 8.33424 5.76537 8.32519 5.81714L8.08269 7.21131C8.07185 7.27518 8.07907 7.3408 8.10354 7.40078C8.12802 7.46076 8.16877 7.5127 8.2212 7.55075C8.27363 7.58879 8.33566 7.61142 8.40027 7.61609C8.46488 7.62075 8.52951 7.60726 8.58686 7.57715L9.84853 6.91881C9.89511 6.89456 9.94685 6.8819 9.99936 6.8819C10.0519 6.8819 10.1036 6.89456 10.1502 6.91881L11.4102 7.57798C11.4673 7.60722 11.5314 7.62003 11.5954 7.61498C11.6594 7.60993 11.7207 7.58722 11.7725 7.54939C11.8244 7.51155 11.8647 7.46006 11.889 7.40067C11.9133 7.34127 11.9206 7.2763 11.9102 7.21298L11.6702 5.81798C11.6611 5.76621 11.6649 5.71301 11.6812 5.66303C11.6975 5.61306 11.7257 5.56783 11.7635 5.53131L12.8144 4.51215C12.8578 4.46992 12.8885 4.41636 12.9031 4.35755C12.9176 4.29874 12.9154 4.23704 12.8967 4.17943C12.8779 4.12181 12.8434 4.07061 12.7971 4.03161C12.7507 3.99262 12.6943 3.9674 12.6344 3.95881L11.1852 3.75214C11.1331 3.7448 11.0835 3.72487 11.0409 3.69409C10.9982 3.66331 10.9636 3.6226 10.9402 3.57548L10.311 2.30214C10.2821 2.24423 10.2376 2.19551 10.1826 2.16146C10.1275 2.12741 10.0641 2.10938 9.99936 2.10938C9.93463 2.10938 9.87118 2.12741 9.81613 2.16146C9.76108 2.19551 9.7166 2.24423 9.68769 2.30214Z" fill="#F50308"/>
</svg>