<svg xmlns="http://www.w3.org/2000/svg" width="20" height="20" viewBox="0 0 20 20" fill="none">
  <g clip-path="url(#clip0_4_30156)">
    <path fill-rule="evenodd" clip-rule="evenodd" d="M1.875 9.0625V15.7187L10 19.3438L18.125 15.7187V9.0625L17.5 9.34375V8.65625L18.125 8.375V7.65625L10.1875 11.2188C10.0625 11.2812 9.9375 11.2812 9.8125 11.2188L1.875 7.6875V8.40625L2.5 8.6875V9.375L1.875 9.0625ZM1.875 6.65625V4.53125L9.875 8.09375C9.96875 8.125 10.0625 8.125 10.125 8.09375L18.125 4.53125V6.65625L10 10.2812L1.875 6.65625ZM10 1.90625L16.25 4.6875L10 7.46875L3.75 4.6875L10 1.90625ZM10 0.65625L17.6562 4.0625L17.0312 4.34375H17L10.125 1.28125C10.0312 1.25 9.9375 1.25 9.875 1.28125L3 4.34375H2.96875L2.34375 4.0625L10 0.65625ZM9.875 0.03125C9.96875 4.65661e-10 10.0625 4.65661e-10 10.125 0.03125L18.5625 3.78125C18.625 3.8125 18.6875 3.875 18.7188 3.9375V3.96875C18.7188 4 18.75 4.0625 18.75 4.09375V15.9687C18.75 16.0938 18.6875 16.2188 18.5625 16.25L10.125 20C10.0312 20.0312 9.9375 20.0312 9.875 20L1.4375 16.25C1.3125 16.1875 1.25 16.0625 1.25 15.9375V4.0625C1.25 4.03125 1.25 4 1.28125 3.9375V3.90625C1.3125 3.84375 1.375 3.78125 1.4375 3.75L9.875 0.03125ZM13.125 11.3125L15.625 10.1875V9.5L13.125 10.625V11.3125ZM12.5 11.5625L11.875 11.8438V11.1562L12.5 10.875V11.5625ZM9.875 12.625L8.75 12.125V11.4375L10 12L11.25 11.4375V12.125L10.125 12.625C10.0312 12.6562 9.96875 12.6562 9.875 12.625ZM7.5 11.5625L8.125 11.8438V11.1562L7.5 10.875V11.5625ZM6.875 11.3125L4.375 10.1875V9.5L6.875 10.625V11.3125ZM3.125 9.625L3.75 9.90625V9.21875L3.125 8.9375V9.625ZM16.25 9.21875L16.875 8.9375V9.625L16.25 9.90625V9.21875Z" fill="#8D8D8D"/>
  </g>
  <defs>
    <clipPath id="clip0_4_30156">
      <rect width="20" height="20" fill="white"/>
    </clipPath>
  </defs>
</svg>