<svg xmlns="http://www.w3.org/2000/svg" width="20" height="20" viewBox="0 0 20 20" fill="none">
  <g clip-path="url(#clip0_4_30160)">
    <path d="M17.5 10.9063V10.2813C17.6725 10.2813 17.8125 10.1414 17.8125 9.96875V8.09375C17.8125 7.92114 17.6725 7.78125 17.5 7.78125H15.8125L15.752 7.54651C15.6138 7.00964 15.3992 6.49536 15.1144 6.01965L14.9894 5.81055L16.1875 4.61035C16.3081 4.4895 16.3081 4.2937 16.1875 4.17285L14.8604 2.84375C14.7378 2.72693 14.5453 2.72693 14.4227 2.84375L13.2224 4.04407L13.0134 3.91907C12.537 3.63416 12.0222 3.41956 11.4846 3.28125L11.25 3.22022V1.53125C11.25 1.35864 11.1101 1.21875 10.9375 1.21875H9.0625C8.88989 1.21875 8.75 1.35864 8.75 1.53125V3.21875L8.51526 3.27942C7.97839 3.41748 7.46411 3.63208 6.98816 3.9165L6.77905 4.04163L5.5791 2.84375C5.45642 2.72595 5.2627 2.72595 5.14002 2.84375L3.8125 4.1709C3.75415 4.22913 3.72131 4.30823 3.72131 4.39063C3.72131 4.47315 3.75415 4.55212 3.8125 4.61035L5.01282 5.81055L4.88782 6.01965C4.60315 6.49536 4.38843 7.00964 4.25037 7.54651L4.18909 7.78125H2.5C2.32739 7.78125 2.1875 7.92114 2.1875 8.09375V9.96875C2.1875 10.1414 2.32739 10.2813 2.5 10.2813V10.9063C1.9823 10.9063 1.5625 10.4865 1.5625 9.96875V8.09375C1.5625 7.57605 1.9823 7.15625 2.5 7.15625H3.70911C3.83801 6.72412 4.01233 6.30689 4.22913 5.91162L3.36975 5.05225C3.19397 4.87683 3.09522 4.63879 3.09522 4.39063C3.09522 4.14246 3.19397 3.90442 3.36975 3.72913L4.69788 2.401C5.06787 2.04688 5.65125 2.04688 6.02124 2.401L6.88037 3.26001C7.27564 3.04334 7.69299 2.86939 8.125 2.7406V1.53125C8.125 1.01355 8.5448 0.59375 9.0625 0.59375H10.9375C11.4552 0.59375 11.875 1.01355 11.875 1.53125V2.7406C12.3071 2.86939 12.7242 3.0437 13.1196 3.26038L13.979 2.401C14.3491 2.04688 14.9324 2.04688 15.3025 2.401L16.6304 3.72876C16.806 3.90418 16.9047 4.14197 16.9047 4.39026C16.9047 4.63855 16.806 4.87659 16.6304 5.05188L15.771 5.91126C15.9877 6.30676 16.1619 6.72412 16.2909 7.15625H17.5C18.0177 7.15625 18.4375 7.57605 18.4375 8.09375V9.96875C18.4375 10.4865 18.0177 10.9063 17.5 10.9063Z" fill="#8D8D8D"/>
    <path d="M14.375 9.03125H13.75C13.75 6.96021 12.071 5.28125 10 5.28125C7.92896 5.28125 6.25 6.96021 6.25 9.03125H5.625C5.625 6.61499 7.58374 4.65625 10 4.65625C12.4161 4.65625 14.375 6.61499 14.375 9.03125Z" fill="#8D8D8D"/>
    <path d="M10 11.5313C8.96448 11.5313 8.125 10.6917 8.125 9.65625C8.125 8.62073 8.96448 7.78125 10 7.78125C11.0356 7.78125 11.875 8.62073 11.875 9.65625C11.8739 10.6914 11.0352 11.5302 10 11.5313ZM10 8.40625C9.30969 8.40625 8.75 8.96594 8.75 9.65625C8.75 10.3466 9.30969 10.9063 10 10.9063C10.6903 10.9063 11.25 10.3466 11.25 9.65625C11.25 8.96594 10.6903 8.40625 10 8.40625Z" fill="#8D8D8D"/>
    <path d="M15.3125 12.7813C14.277 12.7813 13.4375 11.9417 13.4375 10.9063C13.4375 9.87073 14.277 9.03125 15.3125 9.03125C16.348 9.03125 17.1875 9.87073 17.1875 10.9063C17.1864 11.9414 16.3477 12.7802 15.3125 12.7813ZM15.3125 9.65625C14.6222 9.65625 14.0625 10.2159 14.0625 10.9063C14.0625 11.5966 14.6222 12.1563 15.3125 12.1563C16.0028 12.1563 16.5625 11.5966 16.5625 10.9063C16.5625 10.2159 16.0028 9.65625 15.3125 9.65625Z" fill="#8D8D8D"/>
    <path d="M4.6875 12.7813C3.65198 12.7813 2.8125 11.9417 2.8125 10.9063C2.8125 9.87073 3.65198 9.03125 4.6875 9.03125C5.72315 9.03125 6.5625 9.87073 6.5625 10.9063C6.5614 11.9414 5.72266 12.7802 4.6875 12.7813ZM4.6875 9.65625C3.99719 9.65625 3.4375 10.2159 3.4375 10.9063C3.4375 11.5966 3.99719 12.1563 4.6875 12.1563C5.37781 12.1563 5.9375 11.5966 5.9375 10.9063C5.9375 10.2159 5.37781 9.65625 4.6875 9.65625Z" fill="#8D8D8D"/>
    <path d="M18.1455 13.583C17.6798 13.263 17.1277 13.0922 16.5625 13.0938H14.0625C13.9105 13.0951 13.7588 13.1089 13.609 13.1349C13.4091 12.8222 13.1489 12.5524 12.8438 12.3408C12.798 12.3063 12.7499 12.2749 12.6997 12.2472C12.2626 11.9824 11.761 11.843 11.25 11.8438H8.75C7.79431 11.8403 6.90381 12.328 6.39185 13.1349C6.2417 13.1089 6.08972 13.0951 5.9375 13.0938H3.4375C2.8728 13.0922 2.3208 13.2627 1.85535 13.5824C1.08606 14.1059 0.625488 14.9758 0.625 15.9063V17.1563C0.626099 18.0095 1.12256 18.7844 1.89758 19.1419C2.18372 19.2766 2.49634 19.3456 2.8125 19.3438H5.9375V18.7188H3.125V15.2813H2.5V18.6874C2.38232 18.6638 2.26807 18.6258 2.15967 18.5744C1.60608 18.3191 1.25122 17.7658 1.25 17.1563V15.9063C1.25073 15.1821 1.6095 14.5053 2.20813 14.098C2.56982 13.8497 2.99866 13.7175 3.4375 13.7188H5.9375C5.99256 13.7188 6.04566 13.7246 6.09937 13.7283C5.99365 14.0264 5.93884 14.3401 5.9375 14.6563V17.7813C5.9386 18.6438 6.63757 19.3427 7.5 19.3438H8.4375V14.3438H7.8125V18.7188H7.5C6.9823 18.7188 6.5625 18.299 6.5625 17.7813V14.6563C6.5625 13.448 7.54199 12.4688 8.75 12.4688H11.25C11.6521 12.469 12.0461 12.5803 12.389 12.7903C12.4208 12.8076 12.4513 12.8272 12.4802 12.8487C12.7731 13.0492 13.0134 13.3172 13.1809 13.6299C13.3492 13.9458 13.4375 14.2982 13.4375 14.6563V17.7813C13.4375 18.299 13.0177 18.7188 12.5 18.7188H12.1875V14.3438H11.5625V19.3438H12.5C13.3626 19.3427 14.0614 18.6438 14.0625 17.7813V14.6563C14.061 14.3401 14.0065 14.0265 13.9009 13.7283C13.9547 13.7246 14.0078 13.7188 14.0625 13.7188H16.5625C17.0016 13.7175 17.4308 13.8501 17.7927 14.0987C18.3909 14.5061 18.7491 15.1825 18.75 15.9063V17.1563C18.7489 17.768 18.3914 18.3229 17.8351 18.5768C17.7283 18.6273 17.6157 18.6644 17.5 18.6874V15.2813H16.875V18.7188H14.0625V19.3438H17.1875C17.5018 19.3457 17.8126 19.2776 18.0972 19.1443C18.8748 18.788 19.3738 18.0116 19.375 17.1563V15.9063C19.3745 14.9762 18.9143 14.1066 18.1455 13.583Z" fill="#8D8D8D"/>
    <path d="M8.75 18.7188H11.25V19.3438H8.75V18.7188Z" fill="#8D8D8D"/>
  </g>
  <defs>
    <clipPath id="clip0_4_30160">
      <rect width="20" height="20" fill="white"/>
    </clipPath>
  </defs>
</svg>